<svg enable-background="new 0 0 48 48" viewBox="0 0 48 48" xmlns="http://www.w3.org/2000/svg"><g fill="#d1c4e9"><path d="m38 7h-28c-1.1 0-2 .9-2 2v6c0 1.1.9 2 2 2h28c1.1 0 2-.9 2-2v-6c0-1.1-.9-2-2-2z"/><path d="m38 19h-28c-1.1 0-2 .9-2 2v6c0 1.1.9 2 2 2h28c1.1 0 2-.9 2-2v-6c0-1.1-.9-2-2-2z"/><path d="m38 31h-28c-1.1 0-2 .9-2 2v6c0 1.1.9 2 2 2h28c1.1 0 2-.9 2-2v-6c0-1.1-.9-2-2-2z"/></g><circle cx="38" cy="38" fill="#43a047" r="10"/><path d="m42.5 33.3-5.7 5.7-2.7-2.7-2.1 2.2 4.8 4.8 7.8-7.8z" fill="#dcedc8"/></svg>