<svg enable-background="new 0 0 48 48" viewBox="0 0 48 48" xmlns="http://www.w3.org/2000/svg"><g fill="#90caf9"><path d="m17.4 33h-2.4v-4h4l.4 1.5c.3 1.3-.7 2.5-2 2.5z"/><path d="m37 36s-11.8-7-18-7v-14c5.8 0 18-7 18-7z"/></g><g fill="#283593"><circle cx="9" cy="22" r="5"/><path d="m40 19h-3v6h3c1.7 0 3-1.3 3-3s-1.3-3-3-3z"/><path d="m18.6 41.2c-.9.6-2.5 1.2-4.6 1.4-.6.1-1.2-.3-1.4-1l-4.4-13.7s8.8-6.2 8.8 1.1c0 5.5 1.5 8.4 2.2 9.5.5.7.5 1.6 0 2.3-.2.2-.4.3-.6.4z"/></g><path d="m9 29h10v-14h-10c-1.1 0-2 .9-2 2v10c0 1.1.9 2 2 2z" fill="#3f51b5"/><path d="m38 38c-1.1 0-2-.9-2-2v-28c0-1.1.9-2 2-2 1.1 0 2 .9 2 2v28c0 1.1-.9 2-2 2z" fill="#42a5f5"/></svg>