<svg enable-background="new 0 0 48 48" viewBox="0 0 48 48" xmlns="http://www.w3.org/2000/svg"><path d="m7 20v-8c0-2.2 1.8-4 4-4h14c1.2 0 2.4.6 3.2 1.6l6.8 8.4" fill="none" stroke="#f44336" stroke-miterlimit="10" stroke-width="4"/><g fill="#37474f"><circle cx="35" cy="37" r="5"/><circle cx="13" cy="37" r="5"/></g><path d="m40.2 17-7.2-3h-26c-1.2 0-2 .8-2 2v10c0 1.2.8 2 2 2h1c0-2.8 2.2-5 5-5s5 2.2 5 5h12c0-2.8 2.2-5 5-5s5 2.2 5 5h1c1.2 0 2-.8 2-2v-5.2c0-1.6-1.2-3.2-2.8-3.8z" fill="#f44336"/><g fill="#546e7a"><circle cx="24" cy="37" r="3"/><circle cx="35" cy="37" r="2"/><circle cx="13" cy="37" r="2"/><path d="m30.4 39c-.3-.6-.4-1.3-.4-2s.2-1.4.4-2h-12.8c.3.6.4 1.3.4 2s-.2 1.4-.4 2z"/></g></svg>