<svg enable-background="new 0 0 48 48" viewBox="0 0 48 48" xmlns="http://www.w3.org/2000/svg"><path d="m32 15v-8h-16v8l-9.8 25c-.6 1.5.5 3 2.1 3h31.5c1.6 0 2.6-1.6 2.1-3z" fill="#9ccc65"/><path d="m32 9h-16c-1.1 0-2-.9-2-2 0-1.1.9-2 2-2h16c1.1 0 2 .9 2 2 0 1.1-.9 2-2 2z" fill="#8bc34a"/><path d="m28 30c0 4.4-4 8-4 8s-4-3.6-4-8 4-8 4-8 4 3.6 4 8z" fill="#2e7d32"/><path d="m31.1 32.6c-2 4-7.1 5.4-7.1 5.4s-2-5 0-8.9 7.1-5.4 7.1-5.4 2 4.9 0 8.9z" fill="#388e3c"/><path d="m16.9 32.6c2 4 7.1 5.4 7.1 5.4s2-5 0-8.9-7.1-5.4-7.1-5.4-2 4.9 0 8.9z" fill="#43a047"/></svg>