<svg enable-background="new 0 0 48 48" viewBox="0 0 48 48" xmlns="http://www.w3.org/2000/svg"><g fill="#ad1457"><path d="m36 4c0 9.3-6 13.2-12.8 17.8-7.1 4.7-15.2 10-15.2 22.2h4c0-10.1 6.5-14.4 13.4-18.9 6.8-4.5 14.6-9.7 14.6-21.1z"/><path d="m38 41h-27c-.6 0-1-.4-1-1s.4-1 1-1h27c.6 0 1 .4 1 1s-.4 1-1 1z"/><path d="m36 37h-24c-.6 0-1-.4-1-1s.4-1 1-1h24c.6 0 1 .4 1 1s-.4 1-1 1z"/><path d="m34 33h-20c-.6 0-1-.4-1-1s.4-1 1-1h20c.6 0 1 .4 1 1s-.4 1-1 1z"/><path d="m29 29h-10c-.6 0-1-.4-1-1s.4-1 1-1h10c.6 0 1 .4 1 1s-.4 1-1 1z"/></g><path d="m37 9h-27c-.6 0-1-.4-1-1s.4-1 1-1h27c.6 0 1 .4 1 1s-.4 1-1 1z" fill="#e91e63"/><path d="m36 13h-24c-.6 0-1-.4-1-1s.4-1 1-1h24c.6 0 1 .4 1 1s-.4 1-1 1z" fill="#e91e63"/><path d="m34 17h-20c-.6 0-1-.4-1-1s.4-1 1-1h20c.6 0 1 .4 1 1s-.4 1-1 1z" fill="#e91e63"/><path d="m29 21h-10c-.6 0-1-.4-1-1s.4-1 1-1h10c.6 0 1 .4 1 1s-.4 1-1 1z" fill="#e91e63"/><path d="m40 44h-4c0-10.1-6.5-14.4-13.4-18.9-6.8-4.5-14.6-9.7-14.6-21.1h4c0 9.3 6 13.2 12.8 17.8 7.1 4.7 15.2 10 15.2 22.2z" fill="#e91e63"/></svg>