<svg enable-background="new 0 0 48 48" viewBox="0 0 48 48" xmlns="http://www.w3.org/2000/svg"><g fill="#1976d2"><path d="m17.5 27c-1.1 1.2-2.7 2-4.5 2h-3c-3.3 0-6-2.7-6-6s2.7-6 6-6h3c1.8 0 3.4.8 4.5 2h4.7c-1.5-3.5-5.1-6-9.2-6h-3c-5.5 0-10 4.5-10 10s4.5 10 10 10h3c4.1 0 7.6-2.5 9.2-6z"/><path d="m38 13h-3c-4.1 0-7.6 2.5-9.2 6h4.7c1.1-1.2 2.7-2 4.5-2h3c3.3 0 6 2.7 6 6s-2.7 6-6 6h-3c-1.8 0-3.4-.8-4.5-2h-4.7c1.5 3.5 5.1 6 9.2 6h3c5.5 0 10-4.5 10-10s-4.5-10-10-10z"/></g><g fill="#00bcd4"><path d="m19.5 4-3.5 2 6.1 8.1 1.3-.8z"/><path d="m28.5 4 3.5 2-6.1 8.1-1.3-.8z"/><path d="m28.5 44 3.5-2-6.1-8.1-1.3.8z"/><path d="m19.5 44-3.5-2 6.1-8.1 1.3.8z"/></g></svg>