<svg enable-background="new 0 0 48 48" viewBox="0 0 48 48" xmlns="http://www.w3.org/2000/svg"><path d="m16 15h16v18h-16z" fill="#bf360c"/><path d="m40 44h-32c0-11 11-13 11-13h10s11 2 11 13z" fill="#78909c"/><path d="m24 37c-2.2 0-5-6-5-6v-6h10v6s-2.8 6-5 6z" fill="#ff9800"/><path d="m33 14c0-7.6-18-5-18 0v7c0 5 4 9 9 9s9-4 9-9c0-1.1 0-5.9 0-7z" fill="#ffb74d"/><path d="m24 4c-6.1 0-15 3.4-15 23.3l7 4.7v-13l12-7 4 5v15l7-6c0-4-.7-20-11-20l-1-2z" fill="#ff5722"/><path d="m24 38c-4.4 0-5-7-5-7s2.5 4 5 4 5-4 5-4-.6 7-5 7z" fill="#ffb74d"/><g fill="#784719"><circle cx="28" cy="21" r="1"/><circle cx="20" cy="21" r="1"/></g></svg>