<svg enable-background="new 0 0 48 48" viewBox="0 0 48 48" xmlns="http://www.w3.org/2000/svg"><path d="m39.2 8.4-1.8 1.8c-6.3 6.5-5.4 22 0 27.6l1.8 1.8c.5.5 1.3.5 1.8 0l3.6-3.7c.5-.5.5-1.3 0-1.8l-3.4-3.4h-4.8c-1.3-1.3-1.3-12.1 0-13.4h4.8l3.3-3.4c.5-.5.5-1.3 0-1.8l-3.5-3.7c-.5-.5-1.3-.5-1.8 0z" fill="#009688"/><path d="m11.2 8.4-1.8 1.8c-6.3 6.5-5.4 22 0 27.6l1.8 1.8c.5.5 1.3.5 1.8 0l3.6-3.7c.5-.5.5-1.3 0-1.8l-3.4-3.4h-4.7c-1.3-1.3-1.3-12.1 0-13.4h4.8l3.3-3.4c.5-.5.5-1.3 0-1.8l-3.6-3.7c-.5-.5-1.3-.5-1.8 0z" fill="#009688"/><g fill="#2196f3"><path d="m25.3 18.6 5.4 5.4-5.4 5.4z"/><path d="m16 22h11v4h-11z"/></g></svg>