<svg enable-background="new 0 0 48 48" viewBox="0 0 48 48" xmlns="http://www.w3.org/2000/svg"><path d="m26.4 33.9s4-2.6 4.8-3 1.7-.6 2.2-.2c.8.5 7.5 4.9 8.1 5.3s.8 1.5.1 2.6c-.8 1.1-4.3 5.5-5.8 5.4-1.5 0-8.4.4-20.3-11.4-11.9-11.9-11.5-18.8-11.5-20.3s4.3-5.1 5.4-5.8c1.1-.8 2.2-.5 2.6.1s4.8 7.3 5.3 8.1c.3.5.2 1.4-.2 2.2s-3 4.8-3 4.8.7 2.8 5 7.2c4.4 4.3 7.3 5 7.3 5z" fill="#2196f3"/><g fill="#3f51b5"><path d="m35 9h-10v4h10c1.1 0 2 .9 2 2v10h4v-10c0-3.3-2.7-6-6-6z"/><path d="m28 16-6.7-5 6.7-5z"/></g></svg>