<svg enable-background="new 0 0 48 48" viewBox="0 0 48 48" xmlns="http://www.w3.org/2000/svg"><path d="m20 42h-10c-2.2 0-4-1.8-4-4v-23c0-5 4-9 9-9 5 0 9 4 9 9v23c0 2.2-1.8 4-4 4z" fill="#607d8b"/><circle cx="15" cy="15" fill="#455a64" r="7"/><circle cx="15" cy="15" fill="#42a5f5" r="5.2"/><path d="m18.3 13c-.8-.9-2-1.5-3.3-1.5s-2.4.5-3.3 1.5c-.3.4-.3.9.1 1.2s.9.3 1.2-.1c1-1.2 2.9-1.2 3.9 0 .2.2.4.3.7.3.2 0 .4-.1.6-.2.4-.3.4-.9.1-1.2z" fill="#90caf9"/><path d="m40 31h-12c-1.1 0-2-.9-2-2v-10c0-1.1.9-2 2-2h12c1.1 0 2 .9 2 2v10c0 1.1-.9 2-2 2z" fill="#607d8b"/><path d="m24 19h2v10h-2z" fill="#455a64"/><path d="m28 19h12v10h-12z" fill="#03a9f4"/><path d="m33 22.2-4 5.8h8z" fill="#4fc3f7"/><g fill="#b3e5fc"><circle cx="37.5" cy="21.5" r="1"/><path d="m36 24.2-3 3.8h6z"/></g><circle cx="15" cy="35" fill="#455a64" r="3"/><circle cx="15" cy="35" fill="#f44336" r="2"/></svg>