<svg enable-background="new 0 0 48 48" viewBox="0 0 48 48" xmlns="http://www.w3.org/2000/svg"><path d="m27 8h10v4h-10z" fill="#37474f"/><g fill="#607d8b"><path d="m27 8h-9.7c-1.5 0-2.8.8-3.5 2.1l-3.3 6 3.5 1.9 3.3-6h9.7v7.2h4v-7.2c0-2.2-1.8-4-4-4z"/><path d="m30 40h-24c-2.2 0-4-1.8-4-4v-16c0-2.2 1.8-4 4-4h24c2.2 0 4 1.8 4 4v16c0 2.2-1.8 4-4 4z"/><path d="m38 35 5 5h3v-22h-3l-5 5z"/></g><path d="m22 35h-14c-1.1 0-2-.9-2-2v-10c0-1.1.9-2 2-2h14c1.1 0 2 .9 2 2v10c0 1.1-.9 2-2 2z" fill="#546e7a"/><path d="m34 23h4v12h-4z" fill="#455a64"/><path d="m41 13h-4c-.6 0-1-.4-1-1v-4c0-.6.4-1 1-1h4c1.7 0 3 1.3 3 3 0 1.7-1.3 3-3 3z" fill="#263238"/><path d="m8 23h14v10h-14z" fill="#03a9f4"/><path d="m13.5 25.5-4.5 6.5h9z" fill="#4fc3f7"/><g fill="#b3e5fc"><circle cx="19.5" cy="25.5" r="1.5"/><path d="m17.5 27.6-3.5 4.4h7z"/></g></svg>