<svg enable-background="new 0 0 48 48" viewBox="0 0 48 48" xmlns="http://www.w3.org/2000/svg"><path d="m33.9 12.1h-19.7l3.4-5.1c.4-.6 1-.9 1.7-.9h9.6c.7 0 1.3.3 1.7.9z" fill="#512da8"/><path d="m14 11h-6v-1.8c0-.7.5-1.2 1.2-1.2h3.6c.7 0 1.2.5 1.2 1.2z" fill="#8667c4"/><path d="m40 42h-32c-2.2 0-4-1.8-4-4v-24c0-2.2 1.8-4 4-4h32c2.2 0 4 1.8 4 4v24c0 2.2-1.8 4-4 4z" fill="#5e35b1"/><circle cx="24" cy="26" fill="#512da8" r="12"/><circle cx="24" cy="26" fill="#b388ff" r="9"/><g fill="#616161"><path d="m42.2 38.3h2.4v10.4h-2.4z" transform="matrix(.707 -.707 .707 .707 -18.002 43.46)"/><circle cx="35" cy="35" r="10"/></g><path d="m43.9 42.4h2.4v5.6h-2.4z" fill="#37474f" transform="matrix(.707 -.707 .707 .707 -18.709 45.167)"/><circle cx="35" cy="35" fill="#64b5f6" r="8"/><path d="m39.3 31.4c-1.1-1.3-2.6-2-4.2-2s-3.2.7-4.2 2c-.2.3-.2.6.1.9.3.2.6.2.9-.1.8-1 2-1.5 3.3-1.5s2.5.6 3.3 1.5c.1.1.3.2.5.2.1 0 .3 0 .4-.1.1-.2.1-.6-.1-.9z" fill="#bbdefb"/><path d="m29 23c-1.2-1.4-3-2.2-4.8-2.2s-3.6.8-4.8 2.2c-.5.5-.4 1.3.1 1.8s1.3.4 1.8-.1c1.5-1.7 4.3-1.7 5.8 0 .3.3.6.4 1 .4.3 0 .6-.1.9-.3.4-.4.5-1.3 0-1.8z" fill="#c7a7ff"/><ellipse cx="11" cy="13.5" fill="#8667c4" rx="2" ry="1.5"/></svg>