<svg enable-background="new 0 0 48 48" viewBox="0 0 48 48" xmlns="http://www.w3.org/2000/svg"><path d="m33.9 12.1h-19.7l3.4-5.1c.4-.6 1-.9 1.7-.9h9.6c.7 0 1.3.3 1.7.9z" fill="#512da8"/><path d="m14 11h-6v-1.8c0-.7.5-1.2 1.2-1.2h3.6c.7 0 1.2.5 1.2 1.2z" fill="#8667c4"/><path d="m40 42h-32c-2.2 0-4-1.8-4-4v-24c0-2.2 1.8-4 4-4h32c2.2 0 4 1.8 4 4v24c0 2.2-1.8 4-4 4z" fill="#5e35b1"/><circle cx="24" cy="26" fill="#512da8" r="12"/><circle cx="24" cy="26" fill="#b388ff" r="9"/><path d="m28.8 23c-1.2-1.4-3-2.2-4.8-2.2s-3.6.8-4.8 2.2c-.5.5-.4 1.3.1 1.8s1.3.4 1.8-.1c1.5-1.7 4.3-1.7 5.8 0 .3.3.6.4 1 .4.3 0 .6-.1.9-.3.4-.4.5-1.3 0-1.8z" fill="#c7a7ff"/><ellipse cx="11" cy="13.5" fill="#8667c4" rx="2" ry="1.5"/><path d="m48 33.8c0-1.3-1.1-2.4-2.4-2.4h-3.6c-.4 0-.7-.5-.4-.8.4-.6.5-1.3.4-2.1-.2-1.2-1.1-2.1-2.3-2.4-2-.4-3.7 1-3.7 2.9 0 .6.2 1.1.4 1.6.2.4 0 .8-.5.8h-3.6c-1.3 0-2.4 1.1-2.4 2.4v3.2c0 .4.5.7.8.4.6-.4 1.3-.5 2.1-.4 1.2.2 2.1 1.1 2.4 2.3.4 1.9-1.1 3.6-2.9 3.6-.6 0-1.1-.2-1.6-.4-.4-.2-.8 0-.8.5v2.6c0 1.3 1.1 2.4 2.4 2.4h13.2c1.3 0 2.4-1.1 2.4-2.4v-11.8z" fill="#8bc34a"/></svg>