<svg enable-background="new 0 0 48 48" viewBox="0 0 48 48" xmlns="http://www.w3.org/2000/svg"><g fill="#546e7a"><path d="m38 4h2v20h-2z"/><path d="m15 7h2v17h-2z"/><path d="m8 27h2v17h-2z"/><path d="m28 19h2v22h-2z"/></g><path d="m36 7h6c1.1 0 2 .9 2 2v10c0 1.1-.9 2-2 2h-6c-1.1 0-2-.9-2-2v-10c0-1.1.9-2 2-2z" fill="#4caf50"/><path d="m13 10h6c1.1 0 2 .9 2 2v7c0 1.1-.9 2-2 2h-6c-1.1 0-2-.9-2-2v-7c0-1.1.9-2 2-2z" fill="#4caf50"/><g fill="#f44336"><path d="m6 30h6c1.1 0 2 .9 2 2v7c0 1.1-.9 2-2 2h-6c-1.1 0-2-.9-2-2v-7c0-1.1.9-2 2-2z"/><path d="m26 22h6c1.1 0 2 .9 2 2v12c0 1.1-.9 2-2 2h-6c-1.1 0-2-.9-2-2v-12c0-1.1.9-2 2-2z"/></g></svg>