<svg enable-background="new 0 0 48 48" viewBox="0 0 48 48" xmlns="http://www.w3.org/2000/svg"><path d="m12 40v-30h20c2.2 0 4 1.8 4 4v26c0 2.2-1.8 4-4 4h-16c-2.2 0-4-1.8-4-4z" fill="#546e7a"/><path d="m32 13h-16c-.6 0-1 .4-1 1v8c0 .6.4 1 1 1h16c.6 0 1-.4 1-1v-8c0-.6-.4-1-1-1z" fill="#4fc3f7"/><g fill="#b3e5fc"><path d="m19 30h-2c-.6 0-1-.4-1-1v-1c0-.6.4-1 1-1h2c.6 0 1 .4 1 1v1c0 .6-.4 1-1 1z"/><path d="m25 30h-2c-.6 0-1-.4-1-1v-1c0-.6.4-1 1-1h2c.6 0 1 .4 1 1v1c0 .6-.4 1-1 1z"/><path d="m31 30h-2c-.6 0-1-.4-1-1v-1c0-.6.4-1 1-1h2c.6 0 1 .4 1 1v1c0 .6-.4 1-1 1z"/><path d="m19 35h-2c-.6 0-1-.4-1-1v-1c0-.6.4-1 1-1h2c.6 0 1 .4 1 1v1c0 .6-.4 1-1 1z"/><path d="m25 35h-2c-.6 0-1-.4-1-1v-1c0-.6.4-1 1-1h2c.6 0 1 .4 1 1v1c0 .6-.4 1-1 1z"/><path d="m31 35h-2c-.6 0-1-.4-1-1v-1c0-.6.4-1 1-1h2c.6 0 1 .4 1 1v1c0 .6-.4 1-1 1z"/><path d="m19 40h-2c-.6 0-1-.4-1-1v-1c0-.6.4-1 1-1h2c.6 0 1 .4 1 1v1c0 .6-.4 1-1 1z"/><path d="m25 40h-2c-.6 0-1-.4-1-1v-1c0-.6.4-1 1-1h2c.6 0 1 .4 1 1v1c0 .6-.4 1-1 1z"/><path d="m31 40h-2c-.6 0-1-.4-1-1v-1c0-.6.4-1 1-1h2c.6 0 1 .4 1 1v1c0 .6-.4 1-1 1z"/></g><path d="m16 10h-4v-6c0-1.1.9-2 2-2 1.1 0 2 .9 2 2z" fill="#37474f"/></svg>