<svg enable-background="new 0 0 48 48" viewBox="0 0 48 48" xmlns="http://www.w3.org/2000/svg"><path d="m43.4 8.3-39.4 6.7-.3-2c-.4-2.2 1.1-4.2 3.3-4.6l31.6-5.3c2.2-.4 4.2 1.1 4.6 3.3z" fill="#3f51b5"/><path d="m40 41h-32c-2.2 0-4-1.8-4-4v-22h40v22c0 2.2-1.8 4-4 4z" fill="#3f51b5"/><g fill="#9fa8da"><g><path d="m18.8 6.4 4.9 5.3 4-.7-5-5.3z"/><path d="m10.9 7.7 4.9 5.3 4-.7-5-5.2z"/><path d="m26.7 5.1 4.9 5.2 3.9-.6-4.9-5.3z"/><path d="m34.5 3.8 5 5.2 3.9-.7-4.9-5.2z"/></g><circle cx="7.5" cy="11.5" r="1.5"/><g><path d="m40 15-4 6h4l4-6z"/><path d="m32 15-4 6h4l4-6z"/><path d="m24 15-4 6h4l4-6z"/><path d="m16 15-4 6h4l4-6z"/><path d="m8 15-4 6h4l4-6z"/></g></g></svg>