<svg enable-background="new 0 0 48 48" viewBox="0 0 48 48" xmlns="http://www.w3.org/2000/svg"><path d="m5 24c0 18.9 14.8 19 17 19s4 0 4 0-1.9-16.5-21-19z" fill="#2e7d32"/><path d="m22 26h4v17h-4z" fill="#388e3c"/><path d="m34 16c0 5.1-5.2 8.2-8 8.2s-2-3.1-2-8.2 5-9.2 5-9.2 5 4.1 5 9.2z" fill="#c62828"/><path d="m14 16c0 5.1 5.2 8.2 8 8.2s2-3.1 2-8.2-5-9.2-5-9.2-5 4.1-5 9.2z" fill="#c62828"/><path d="m24 27c-2.2-1.6-1.9-4.5 2.4-8.8 4.4-4.4 5.6-11.2 5.6-11.2s5 3.4 5 9c0 5.9-5.7 11-13 11z" fill="#e53935"/><path d="m24 27c2.2-1.6 1.9-4.5-2.4-8.8-4.4-4.4-5.6-11.2-5.6-11.2s-5 3.4-5 9c0 5.9 5.7 11 13 11z" fill="#e53935"/><path d="m30 16c0 6.1-2.7 11-6 11s-6-4.9-6-11 6-11 6-11 6 4.9 6 11z" fill="#f44336"/><path d="m22 43h4s17-.1 17-19c-19.1 2.5-21 19-21 19z" fill="#4caf50"/></svg>