<svg enable-background="new 0 0 48 48" viewBox="0 0 48 48" xmlns="http://www.w3.org/2000/svg"><path d="m6 10v28c0 2.2 1.8 4 4 4h28c2.2 0 4-1.8 4-4v-28c0-2.2-1.8-4-4-4h-28c-2.2 0-4 1.8-4 4z" fill="#ff5722"/><g fill="#bf360c"><path d="m6 35h36v2h-36z"/><path d="m6 31h36v2h-36z"/><path d="m6.1 39c.2.8.6 1.5 1.2 2h33.2c.6-.5 1-1.2 1.2-2z"/><path d="m6.1 9h35.7c-.2-.8-.6-1.5-1.2-2h-33.2c-.6.5-1.1 1.2-1.3 2z"/><path d="m6 23h36v2h-36z"/><path d="m6 27h36v2h-36z"/><path d="m6 15h36v2h-36z"/><path d="m6 11h36v2h-36z"/><path d="m6 19h36v2h-36z"/></g><g fill="#ff8a65"><path d="m27 6h2v5h-2z"/><path d="m27 13h2v6h-2z"/><path d="m27 29h2v6h-2z"/><path d="m31 6h2v1h-2z"/><path d="m19 29h2v6h-2z"/><path d="m31 9h2v6h-2z"/><path d="m23 6h2v1h-2z"/><path d="m23 25h2v6h-2z"/><path d="m23 9h2v6h-2z"/><path d="m19 21h2v6h-2z"/><path d="m23 17h2v6h-2z"/><path d="m23 33h2v6h-2z"/><path d="m27 21h2v6h-2z"/><path d="m39 33h2v6h-2z"/><path d="m39 17h2v6h-2z"/><path d="m39 25h2v6h-2z"/><path d="m39 6.1v.9h1.6c-.4-.4-1-.7-1.6-.9z"/><path d="m31 17h2v6h-2z"/><path d="m40.6 41h-1.6v.9c.6-.2 1.2-.5 1.6-.9z"/><path d="m35 13h2v6h-2z"/><path d="m31 33h2v6h-2z"/><path d="m35 29h2v6h-2z"/><path d="m39 9h2v6h-2z"/><path d="m35 21h2v6h-2z"/><path d="m31 25h2v6h-2z"/><path d="m35 37h2v5h-2z"/><path d="m35 6h2v5h-2z"/><path d="m31 41h2v1h-2z"/><path d="m23 41h2v1h-2z"/><path d="m27 37h2v5h-2z"/><path d="m19 37h2v5h-2z"/><path d="m7 17h2v6h-2z"/><path d="m9 41h-1.6c.5.4 1 .7 1.6.9z"/><path d="m7.4 7h1.6v-.9c-.6.2-1.2.5-1.6.9z"/><path d="m7 33h2v6h-2z"/><path d="m7 25h2v6h-2z"/><path d="m7 9h2v6h-2z"/><path d="m11 29h2v6h-2z"/><path d="m15 17h2v6h-2z"/><path d="m15 33h2v6h-2z"/><path d="m15 9h2v6h-2z"/><path d="m15 6h2v1h-2z"/><path d="m19 6h2v5h-2z"/><path d="m15 25h2v6h-2z"/><path d="m15 41h2v1h-2z"/><path d="m11 21h2v6h-2z"/><path d="m11 6h2v5h-2z"/><path d="m11 37h2v5h-2z"/><path d="m19 13h2v6h-2z"/><path d="m11 13h2v6h-2z"/></g></svg>