<svg enable-background="new 0 0 48 48" viewBox="0 0 48 48" xmlns="http://www.w3.org/2000/svg"><g fill="#00bcd4"><path d="m37 18h6v24h-6z"/><path d="m29 26h6v16h-6z"/><path d="m21 22h6v20h-6z"/><path d="m13 32h6v10h-6z"/><path d="m5 28h6v14h-6z"/></g><g fill="#3f51b5"><circle cx="8" cy="16" r="3"/><circle cx="16" cy="18" r="3"/><circle cx="24" cy="11" r="3"/><circle cx="32" cy="13" r="3"/><circle cx="40" cy="9" r="3"/><path d="m39.1 7.2-7.3 3.7-8.3-2.1-8 7-7-1.7-1 3.8 9 2.3 8-7 7.7 1.9 8.7-4.3z"/></g></svg>