<svg enable-background="new 0 0 48 48" viewBox="0 0 48 48" xmlns="http://www.w3.org/2000/svg"><path d="m29 43v-4.6l2.6.5c2.9.6 5.6-1.5 5.8-4.4l.6-6.5 2.9-1.2c1-.4 1.4-1.6.8-2.6l-3.7-6.2c-.6-7.6-4.9-15-16-15-11.4 0-17 8.4-17 17 0 3.7 1.3 6.9 3.3 9.6 1.8 2.5 2.7 5.5 2.7 8.5v4.8h18z" fill="#ffb74d"/><path d="m29 43v-4.6l-7-1.4v6z" fill="#ff9800"/><circle cx="33.5" cy="21.5" fill="#784719" r="1.5"/><path d="m21.4 3c-9.1 0-16.4 7.3-16.4 16.4 0 11.1 6 11.4 6 18.6l2.6-.9c2.1-.7 3.9-2.3 4.7-4.4l2.8-6.8 5.9-2.9v-6s7-3.8 7-10.3c-3-2.5-8.3-3.7-12.6-3.7z" fill="#ff5722"/><g fill="#546e7a"><path d="m21 2.1c-.6 0-1 .4-1 1v13.9c0 .6.4 1 1 1s1-.4 1-1v-13.9c0-.6-.4-1-1-1z"/><path d="m36.9 31.9c-7.9 0-10.3-4.9-10.4-5.1-.2-.5-.8-.7-1.3-.5s-.7.8-.5 1.3c.1.3 3 6.3 12.2 6.3.6 0 1-.4 1-1s-.5-1-1-1z"/></g><circle cx="37" cy="33" fill="#37474f" r="2"/><circle cx="21" cy="23" fill="#37474f" r="7"/><circle cx="21" cy="23" fill="#546e7a" r="4"/></svg>