<svg enable-background="new 0 0 48 48" viewBox="0 0 48 48" xmlns="http://www.w3.org/2000/svg"><g fill="#81d4fa"><path d="m24 28h18v14h-18z"/><path d="m6 10h12v32h-12z"/></g><g fill="#1976d2"><path d="m16 8h-2c0 1.1-.9 2-2 2s-2-.9-2-2h-2c0 1.1-.9 2-2 2v2c1.2 0 2.3-.5 3-1.4.7.8 1.8 1.4 3 1.4s2.3-.5 3-1.4c.7.8 1.8 1.4 3 1.4v-2c-1.1 0-2-.9-2-2z"/><path d="m16 14h-2c0 1.1-.9 2-2 2s-2-.9-2-2h-2c0 1.1-.9 2-2 2v2c1.2 0 2.3-.5 3-1.4.7.8 1.8 1.4 3 1.4s2.3-.5 3-1.4c.7.8 1.8 1.4 3 1.4v-2c-1.1 0-2-.9-2-2z"/><path d="m16 20h-2c0 1.1-.9 2-2 2s-2-.9-2-2h-2c0 1.1-.9 2-2 2v2c1.2 0 2.3-.5 3-1.4.7.8 1.8 1.4 3 1.4s2.3-.5 3-1.4c.7.8 1.8 1.4 3 1.4v-2c-1.1 0-2-.9-2-2z"/><path d="m16 26h-2c0 1.1-.9 2-2 2s-2-.9-2-2h-2c0 1.1-.9 2-2 2v2c1.2 0 2.3-.5 3-1.4.7.8 1.8 1.4 3 1.4s2.3-.5 3-1.4c.7.8 1.8 1.4 3 1.4v-2c-1.1 0-2-.9-2-2z"/><path d="m16 32h-2c0 1.1-.9 2-2 2s-2-.9-2-2h-2c0 1.1-.9 2-2 2v2c1.2 0 2.3-.5 3-1.4.7.8 1.8 1.4 3 1.4s2.3-.5 3-1.4c.7.8 1.8 1.4 3 1.4v-2c-1.1 0-2-.9-2-2z"/><path d="m16 38h-2c0 1.1-.9 2-2 2s-2-.9-2-2h-2c0 1.1-.9 2-2 2v2c1.2 0 2.3-.5 3-1.4.7.8 1.8 1.4 3 1.4s2.3-.5 3-1.4c.7.8 1.8 1.4 3 1.4v-2c-1.1 0-2-.9-2-2z"/><path d="m40 32h-2c0 1.1-.9 2-2 2s-2-.9-2-2h-2c0 1.1-.9 2-2 2s-2-.9-2-2h-2c0 1.1-.9 2-2 2v2c1.2 0 2.3-.5 3-1.4.7.8 1.8 1.4 3 1.4s2.3-.5 3-1.4c.7.8 1.8 1.4 3 1.4s2.3-.5 3-1.4c.7.8 1.8 1.4 3 1.4v-2c-1.1 0-2-.9-2-2z"/><path d="m40 26h-2c0 1.1-.9 2-2 2s-2-.9-2-2h-2c0 1.1-.9 2-2 2s-2-.9-2-2h-2c0 1.1-.9 2-2 2v2c1.2 0 2.3-.5 3-1.4.7.8 1.8 1.4 3 1.4s2.3-.5 3-1.4c.7.8 1.8 1.4 3 1.4s2.3-.5 3-1.4c.7.8 1.8 1.4 3 1.4v-2c-1.1 0-2-.9-2-2z"/><path d="m40 38h-2c0 1.1-.9 2-2 2s-2-.9-2-2h-2c0 1.1-.9 2-2 2v2c1.2 0 2.3-.5 3-1.4.7.8 1.8 1.4 3 1.4s2.3-.5 3-1.4c.7.8 1.8 1.4 3 1.4v-2c-1.1 0-2-.9-2-2z"/></g><path d="m25.1 9.2 6.4 32.8h-13.5v-36h3.2c1.9 0 3.6 1.4 3.9 3.2z" fill="#455a64"/></svg>