<svg enable-background="new 0 0 48 48" viewBox="0 0 48 48" xmlns="http://www.w3.org/2000/svg"><g fill="#d1c4e9"><path d="m38 7h-28c-1.1 0-2 .9-2 2v6c0 1.1.9 2 2 2h28c1.1 0 2-.9 2-2v-6c0-1.1-.9-2-2-2z"/><path d="m38 19h-28c-1.1 0-2 .9-2 2v6c0 1.1.9 2 2 2h25.1c1.3-1.3 4.9-.9 4.9-2v-6c0-1.1-.9-2-2-2z"/><path d="m34.4 31h-24.4c-1.1 0-2 .9-2 2v6c0 1.1.9 2 2 2h28c1.1 0 2-.9 2-2v-2.4c0-3.1-2.5-5.6-5.6-5.6z"/></g><path d="m46 25h-14c-1.1 0-2 .9-2 2v11.8c0 1.3.6 2.4 1.6 3.2l7.4 5.5 7.4-5.5c1-.8 1.6-1.9 1.6-3.2v-11.8c0-1.1-.9-2-2-2z" fill="#009688"/></svg>