<svg enable-background="new 0 0 48 48" viewBox="0 0 48 48" xmlns="http://www.w3.org/2000/svg"><g fill="#d1c4e9"><path d="m38 7h-28c-1.1 0-2 .9-2 2v6c0 1.1.9 2 2 2h28c1.1 0 2-.9 2-2v-6c0-1.1-.9-2-2-2z"/><path d="m38 19h-28c-1.1 0-2 .9-2 2v6c0 1.1.9 2 2 2h25.1c1.3-1.3 4.9-.9 4.9-2v-6c0-1.1-.9-2-2-2z"/><path d="m34.4 31h-24.4c-1.1 0-2 .9-2 2v6c0 1.1.9 2 2 2h28c1.1 0 2-.9 2-2v-2.4c0-3.1-2.5-5.6-5.6-5.6z"/></g><g fill="#ffa000"><path d="m43 46-2 2h-2l-2-2v-10.6h6v4.6l-1 1 1 1v1l-1 1 1 1z"/><path d="m47.5 28.5c-.3-.9-1-1.6-2-1.8-1.3-.3-3.3-.7-5.5-.7s-4.2.4-5.5.6c-1 .2-1.7.9-2 1.8-.2 1-.5 2.2-.5 3.6s.3 2.6.5 3.5c.3.9 1 1.6 2 1.8 1.3.3 3.2.6 5.5.6s4.2-.4 5.5-.6c1-.2 1.7-.9 2-1.8s.5-2.1.5-3.5-.3-2.6-.5-3.5zm-4.6 2.5h-5.7c-.6 0-1.1-.5-1.1-1.1v-1.4c0-.3 1.8-.6 4-.6s4 .3 4 .6v1.4c-.1.6-.6 1.1-1.2 1.1z"/></g><path d="m39 37.1h1v10.9h-1z" fill="#d68600"/></svg>