<svg enable-background="new 0 0 48 48" viewBox="0 0 48 48" xmlns="http://www.w3.org/2000/svg"><g fill="#d1c4e9"><path d="m38 7h-28c-1.1 0-2 .9-2 2v6c0 1.1.9 2 2 2h28c1.1 0 2-.9 2-2v-6c0-1.1-.9-2-2-2z"/><path d="m38 19h-28c-1.1 0-2 .9-2 2v6c0 1.1.9 2 2 2h28c1.1 0 2-.9 2-2v-6c0-1.1-.9-2-2-2z"/><path d="m38 31h-28c-1.1 0-2 .9-2 2v6c0 1.1.9 2 2 2h28c1.1 0 2-.9 2-2v-6c0-1.1-.9-2-2-2z"/></g><g fill="#2196f3"><path d="m31 30 7 5.6v-11.2z"/><path d="m38 28c-.3 0-.7 0-1 .1v4c.3-.1.7-.1 1-.1 3.3 0 6 2.7 6 6s-2.7 6-6 6-6-2.7-6-6c0-.3 0-.6.1-.9l-3.4-2.7c-.4 1.1-.7 2.3-.7 3.6 0 5.5 4.5 10 10 10s10-4.5 10-10-4.5-10-10-10z"/></g></svg>