<svg enable-background="new 0 0 48 48" viewBox="0 0 48 48" xmlns="http://www.w3.org/2000/svg"><g fill="#d1c4e9"><path d="m38 7h-28c-1.1 0-2 .9-2 2v6c0 1.1.9 2 2 2h28c1.1 0 2-.9 2-2v-6c0-1.1-.9-2-2-2z"/><path d="m38 19h-28c-1.1 0-2 .9-2 2v6c0 1.1.9 2 2 2h28c1.1 0 2-.9 2-2v-6c0-1.1-.9-2-2-2z"/><path d="m38 31h-28c-1.1 0-2 .9-2 2v6c0 1.1.9 2 2 2h28c1.1 0 2-.9 2-2v-6c0-1.1-.9-2-2-2z"/></g><circle cx="38" cy="38" fill="#f44336" r="10"/><g fill="#fff"><path d="m36.5 32h3v12h-3z" transform="matrix(-.707 .707 -.707 -.707 91.74 38)"/><path d="m36.5 32h3v12h-3z" transform="matrix(-.707 -.707 .707 -.707 38 91.74)"/></g></svg>