<svg enable-background="new 0 0 48 48" viewBox="0 0 48 48" xmlns="http://www.w3.org/2000/svg"><path d="m42 42h-36v-33l18-7 18 7z" fill="#c5cae9"/><path d="m6 42h36v2h-36z" fill="#9fa8da"/><path d="m20 35h8v9h-8z" fill="#bf360c"/><g fill="#1565c0"><path d="m31 27h6v5h-6z"/><path d="m21 27h6v5h-6z"/><path d="m11 27h6v5h-6z"/><path d="m31 35h6v5h-6z"/><path d="m11 35h6v5h-6z"/><path d="m31 19h6v5h-6z"/><path d="m21 19h6v5h-6z"/><path d="m11 19h6v5h-6z"/><path d="m31 11h6v5h-6z"/><path d="m21 11h6v5h-6z"/><path d="m11 11h6v5h-6z"/></g></svg>