<svg enable-background="new 0 0 48 48" viewBox="0 0 48 48" xmlns="http://www.w3.org/2000/svg"><path d="m4 9h40v30h-40z" fill="#e8eaf6"/><g fill="#5c6bc0"><path d="m30 34h2.8l-5-5-2.8 2.8 5 5z"/><path d="m18 34h-2.8l5-5 2.8 2.8-5 5z"/></g><g fill="#9fa8da"><path d="m11 15h26v4h-26z"/><path d="m24 23c-2.8 0-5 2.2-5 5s2.2 5 5 5 5-2.2 5-5-2.2-5-5-5zm0 8c-1.7 0-3-1.3-3-3s1.3-3 3-3 3 1.3 3 3-1.3 3-3 3z"/><path d="m3 8v32h42v-32zm40 27c-1.7 0-3 1.3-3 3h-32c0-1.7-1.3-3-3-3v-22c1.7 0 3-1.3 3-3h32c0 1.7 1.3 3 3 3z"/></g></svg>