<svg enable-background="new 0 0 48 48" viewBox="0 0 48 48" xmlns="http://www.w3.org/2000/svg"><path d="m9 4h30v40h-30z" fill="#fbe9e7"/><g fill="#f4511e"><path d="m30 37h2.8l-5-5-2.8 2.8 5 5z"/><path d="m18 37h-2.8l5-5 2.8 2.8-5 5z"/></g><g fill="#ff8a65"><path d="m15 13h18v4h-18z"/><path d="m15 20h18v2h-18z"/><path d="m24 26c-2.8 0-5 2.2-5 5s2.2 5 5 5 5-2.2 5-5-2.2-5-5-5zm0 8c-1.7 0-3-1.3-3-3s1.3-3 3-3 3 1.3 3 3-1.3 3-3 3z"/><path d="m8 3v42h32v-42zm30 37c-1.7 0-3 1.3-3 3h-22c0-1.7-1.3-3-3-3v-32c1.7 0 3-1.3 3-3h22c0 1.7 1.3 3 3 3z"/></g></svg>