<svg enable-background="new 0 0 48 48" viewBox="0 0 48 48" xmlns="http://www.w3.org/2000/svg"><g fill="#ffcc80"><path d="m13 22h-5v-8.5c0-1.4 1.1-2.5 2.5-2.5 1.4 0 2.5 1.1 2.5 2.5z"/><path d="m20 22h-5v-14.5c0-1.4 1.1-2.5 2.5-2.5 1.4 0 2.5 1.1 2.5 2.5z"/><path d="m27 22h-5v-16.5c0-1.4 1.1-2.5 2.5-2.5 1.4 0 2.5 1.1 2.5 2.5z"/><path d="m34 22h-5v-13.5c0-1.4 1.1-2.5 2.5-2.5 1.4 0 2.5 1.1 2.5 2.5z"/><path d="m32.1 43-5-5 10-10c1.4-1.4 3.6-1.4 4.9 0 1.4 1.4 1.4 3.6 0 4.9z"/><path d="m29 21c0 .6-.4 1-1 1s-1-.4-1-1h-5c0 .6-.4 1-1 1s-1-.4-1-1h-5c0 .6-.4 1-1 1s-1-.4-1-1h-5v16c0 4.4 3.6 8 8 8h11.2c3.7 0 6.8-3 6.8-6.8v-17.2z"/></g><g fill="#f44336"><path d="m20.2 25.5h3.5v15h-3.5z" transform="matrix(.707 -.707 .707 .707 -16.897 25.224)"/><path d="m20.2 25.6h3.5v15h-3.5z" transform="matrix(.707 .707 -.707 .707 29.811 -5.877)"/></g></svg>