<svg enable-background="new 0 0 48 48" viewBox="0 0 48 48" xmlns="http://www.w3.org/2000/svg"><path d="m40 41h-32c-2.2 0-4-1.8-4-4v-26c0-2.2 1.8-4 4-4h32c2.2 0 4 1.8 4 4v26c0 2.2-1.8 4-4 4z" fill="#80deea"/><g fill="#2962ff"><path d="m36 17h-5l-2-2 2-2h5l2 2z"/><path d="m36 35h-5l-2-2 2-2h5l2 2z"/><path d="m37 30v-12l2-2 2 2v12l-2 2z"/><path d="m26 30v-12l2-2 2 2v12l-2 2z"/><path d="m17 17h-5l-2-2 2-2h5l2 2z"/><path d="m17 35h-5l-2-2 2-2h5l2 2z"/><path d="m18 30v-12l2-2 2 2v12l-2 2z"/><path d="m7 30v-12l2-2 2 2v12l-2 2z"/></g></svg>