<svg enable-background="new 0 0 48 48" viewBox="0 0 48 48" xmlns="http://www.w3.org/2000/svg"><path d="m33.5 20c-2.3-2.3-3.5-6.1-3.5-11 0-3.2 0-3 0-3h-12v3c0 4.9-1.2 8.7-3.5 11-2.4.2-5.5 2-5.5 5.4 0 4.5 5.1 4.6 6 4.6 1.2 0 6.1 4 8 4h1s1 0 1 0c1.9 0 6.8-4 8-4 .9 0 6-.1 6-4.6 0-3.4-3.1-5.2-5.5-5.4z" fill="#ffa726"/><path d="m33.5 20c-2.3-2.3-3.5-6.1-3.5-11 0-3.2 0-3 0-3h-12v3c0 4.9-1.2 8.7-3.5 11-2.4.2-5.5 2-5.5 5.4 0 4.5 5.1 4.6 6 4.6 1.2 0 6.1 4 8 4h1s1 0 1 0c1.9 0 6.8-4 8-4 .9 0 6-.1 6-4.6 0-3.4-3.1-5.2-5.5-5.4z" fill="#ffa726"/><path d="m26 9c0-3.2 0-3 0-3h-4v3c0 4.9-3 19-3 19s1.6 2 5 2 5-2 5-2-3-14.1-3-19z" fill="#ffb74d"/><path d="m23 34c-3.3 0-6.4-3.1-8-4h1.8c3.1 0 4.5 4 6.2 4z" fill="#cc861e"/><path d="m25 34c3.3 0 6.4-3.1 8-4 0 0-.7 0-1.8 0-3.1 0-4.5 4-6.2 4z" fill="#cc861e"/><path d="m22-2.9h4v53.7h-4z" fill="#37474f" transform="matrix(.707 -.707 .707 .707 -9.941 24)"/><g fill="#ff5722"><path d="m18 35 4 4h-8z"/><path d="m17 38h2v4h-2z"/><path d="m30 35 4 4h-8z"/><path d="m29 38h2v4h-2z"/></g></svg>