<svg enable-background="new 0 0 48 48" viewBox="0 0 48 48" xmlns="http://www.w3.org/2000/svg"><path d="m31 41h-23c-2.2 0-4-1.8-4-4v-26c0-2.2 1.8-4 4-4h32c2.2 0 4 1.8 4 4v17c0 7.2-5.8 13-13 13z" fill="#8cbcd6"/><circle cx="35" cy="16" fill="#b3ddf5" r="3"/><path d="m20 16-11 16h22z" fill="#9ac9e3"/><path d="m31 22-8 10h16z" fill="#b3ddf5"/><path d="m47.7 29.1-2.8-2.8c-.4-.4-1.1-.4-1.6 0l-1.3 1.3 4.4 4.4 1.3-1.3c.4-.4.4-1.1 0-1.6z" fill="#e57373"/><path d="m27.1 35.1h17.4v6.2h-17.4z" fill="#ff9800" transform="matrix(.707 -.707 .707 .707 -16.508 36.511)"/><path d="m41.5 27.8h3.1v6.2h-3.1z" fill="#b0bec5" transform="matrix(-.707 .707 -.707 -.707 95.395 22.352)"/><path d="m27.5 42.2-1.5 5.8 5.8-1.5z" fill="#ffc107"/><path d="m26.7 45-.7 3 3-.7z" fill="#37474f"/></svg>