<svg enable-background="new 0 0 48 48" viewBox="0 0 48 48" xmlns="http://www.w3.org/2000/svg"><path d="m12 44h4v2h-4z" fill="#263238"/><path d="m32 44h4v2h-4z" fill="#263238"/><path d="m8 41v-34c0-2.2 1.8-4 4-4h24c2.2 0 4 1.8 4 4v34c0 2.2-1.8 4-4 4h-24c-2.2 0-4-1.8-4-4z" fill="#607d8b"/><g fill="#b0bec5"><path d="m12 17v-9c0-.6.4-1 1-1h22c.6 0 1 .4 1 1v9z"/><path d="m12 19h24v10h-24z"/><path d="m12 40v-9h24v9c0 .6-.4 1-1 1h-22c-.6 0-1-.4-1-1z"/></g><path d="m20 11h8v2h-8z" fill="#546e7a"/><path d="m20 23h8v2h-8z" fill="#546e7a"/><path d="m20 35h8v2h-8z" fill="#546e7a"/></svg>