<svg enable-background="new 0 0 48 48" viewBox="0 0 48 48" xmlns="http://www.w3.org/2000/svg"><path d="m33 42h-28v-38h19l9 9z" fill="#90caf9"/><path d="m31.5 14h-8.5v-8.5z" fill="#e1f5fe"/><path d="m38.3 34.8h2.8v12h-2.8z" fill="#616161" transform="matrix(.707 -.707 .707 .707 -17.177 40.055)"/><circle cx="28" cy="29" fill="#616161" r="11"/><circle cx="28" cy="29" fill="#90caf9" r="9"/><path d="m39.5 37.6h2.8v8.7h-2.8z" fill="#37474f" transform="matrix(.707 -.707 .707 .707 -17.661 41.223)"/><g fill="#1976d2"><path d="m30 31h-9.7c.4 1.6 1.3 3 2.5 4h7.2z"/><path d="m20.3 27h9.7v-4h-7.3c-1.2 1-2 2.4-2.4 4z"/><path d="m20.1 20h-9.1v2h7.3c.5-.7 1.1-1.4 1.8-2z"/><path d="m17.1 24h-6.1v2h5.4c.2-.7.4-1.4.7-2z"/><path d="m16 29c0-.3 0-.7.1-1h-5.1v2h5.1c-.1-.3-.1-.7-.1-1z"/><path d="m16.4 32h-5.4v2h6.1c-.3-.6-.5-1.3-.7-2z"/></g></svg>