<svg enable-background="new 0 0 48 48" viewBox="0 0 48 48" xmlns="http://www.w3.org/2000/svg"><path d="m40 14h-32l3.8 28.3c.1 1 1 1.7 2 1.7h20.5c1 0 1.8-.7 2-1.7z" fill="#4caf50"/><g fill="#81c784"><path d="m42 14h-36v-3c0-2.2 1.8-4 4-4h28c2.2 0 4 1.8 4 4z"/><path d="m37.2 10h-26.4l1.7-4.7c.3-.8 1-1.3 1.9-1.3h19.2c.8 0 1.6.5 1.9 1.3z"/></g><path d="m28 28.5c1.2-1.1 2-2.7 2-4.5 0-3.3-2.7-6-6-6s-6 2.7-6 6c0 1.8.8 3.4 2 4.5-1.2 1.1-2 2.7-2 4.5 0 3.3 2.7 6 6 6s6-2.7 6-6c0-1.8-.8-3.4-2-4.5zm-4 7.5c-1.7 0-3-1.3-3-3s1.3-3 3-3 3 1.3 3 3-1.3 3-3 3zm0-9c-1.7 0-3-1.3-3-3s1.3-3 3-3 3 1.3 3 3-1.3 3-3 3z" fill="#e8f5e9"/></svg>