<svg enable-background="new 0 0 48 48" viewBox="0 0 48 48" xmlns="http://www.w3.org/2000/svg"><circle cx="24" cy="22" fill="#fff59d" r="20"/><path d="m37 22c0-7.7-6.6-13.8-14.5-12.9-6 .7-10.8 5.5-11.4 11.5-.5 4.6 1.4 8.7 4.6 11.3 1.4 1.2 2.3 2.9 2.3 4.8v.3h12v-.1c0-1.8.8-3.6 2.2-4.8 2.9-2.4 4.8-6 4.8-10.1z" fill="#fbc02d"/><path d="m30.6 20.2-3-2c-.3-.2-.8-.2-1.1 0l-2.5 1.6-2.4-1.6c-.3-.2-.8-.2-1.1 0l-3 2c-.2.2-.4.4-.4.7s0 .6.2.8l3.8 4.7v10.6h2v-11c0-.2-.1-.4-.2-.6l-3.3-4.1 1.5-1 2.4 1.6c.3.2.8.2 1.1 0l2.4-1.6 1.5 1-3.3 4.1c-.1.2-.2.4-.2.6v11h2v-10.6l3.8-4.7c.2-.2.3-.5.2-.8s-.2-.6-.4-.7z" fill="#fff59d"/><circle cx="24" cy="44" fill="#5c6bc0" r="3"/><path d="m26 45h-4c-2.2 0-4-1.8-4-4v-5h12v5c0 2.2-1.8 4-4 4z" fill="#9fa8da"/><g fill="#5c6bc0"><path d="m30 41-11.6 1.6c.3.7.9 1.4 1.6 1.8l9.4-1.3c.4-.6.6-1.3.6-2.1z"/><path d="m18 38.7v2l12-1.7v-2z"/></g></svg>