<svg enable-background="new 0 0 48 48" viewBox="0 0 48 48" xmlns="http://www.w3.org/2000/svg"><path d="m44 36h-14v-20c0-1.1.9-2 2-2h8c.6 0 1.2.3 1.6.8l6 7.7c.3.4.4.8.4 1.2v8.3c0 2.2-1.8 4-4 4z" fill="#ffc107"/><g fill="#9575cd"><path d="m8 36h22v-23c0-2.2-1.8-4-4-4h-22v23c0 2.2 1.8 4 4 4z"/><path d="m0 9h10v2h-10z"/><path d="m0 14h10v2h-10z"/><path d="m0 19h10v2h-10z"/><path d="m0 24h10v2h-10z"/></g><g fill="#7e57c2"><path d="m4 11h16v2h-16z"/><path d="m4 16h12v2h-12z"/><path d="m4 21h8v2h-8z"/><path d="m4 26h4v2h-4z"/></g><g fill="#37474f"><circle cx="39" cy="36" r="5"/><circle cx="16" cy="36" r="5"/></g><g fill="#78909c"><circle cx="39" cy="36" r="2.5"/><circle cx="16" cy="36" r="2.5"/></g><path d="m44 26h-3.6c-.3 0-.5-.1-.7-.3l-1.4-1.4c-.2-.2-.4-.3-.7-.3h-3.6c-.6 0-1-.4-1-1v-6c0-.6.4-1 1-1h5.5c.3 0 .6.1.8.4l4.5 5.4c.1.2.2.4.2.6v2.6c0 .6-.4 1-1 1z" fill="#455a64"/></svg>