<svg enable-background="new 0 0 48 48" viewBox="0 0 48 48" xmlns="http://www.w3.org/2000/svg"><g fill="#ffa000"><path d="m30 41-4 4h-4l-4-4v-20h12v8l-2 2 2 2v2l-2 2 2 2z"/><path d="m38 7.8c-.5-1.8-2-3.1-3.7-3.6-2.4-.5-6.1-1.2-10.3-1.2s-7.9.7-10.3 1.2c-1.7.5-3.2 1.8-3.7 3.6-.5 1.7-1 4.1-1 6.7s.5 5 1 6.7c.5 1.8 1.9 3.1 3.7 3.5 2.4.6 6.1 1.3 10.3 1.3s7.9-.7 10.3-1.2c1.8-.4 3.2-1.8 3.7-3.5s1-4.1 1-6.7c0-2.7-.5-5.1-1-6.8zm-9 5.2h-10c-1.1 0-2-.9-2-2v-2c0-.6 3.1-1 7-1s7 .4 7 1v2c0 1.1-.9 2-2 2z"/></g><path d="m23 26h2v19h-2z" fill="#d68600"/></svg>