<svg enable-background="new 0 0 48 48" viewBox="0 0 48 48" xmlns="http://www.w3.org/2000/svg"><g fill="#ff9800"><path d="m1 38h46v2h-46z"/><path d="m25 18h4v16h-4z"/><path d="m31 18h4v16h-4z"/><path d="m37 18h4v16h-4z"/><path d="m19 18h4v16h-4z"/><path d="m13 18h4v16h-4z"/><path d="m7 18h4v16h-4z"/><path d="m43 16h-38v-3l19-9 19 9z"/><path d="m5 34h38v2h-38z"/></g><g fill="#ef6c00"><path d="m25 16h4v2h-4z"/><path d="m31 16h4v2h-4z"/><path d="m37 16h4v2h-4z"/><path d="m19 16h4v2h-4z"/><path d="m13 16h4v2h-4z"/><path d="m7 16h4v2h-4z"/><path d="m3 36h42v2h-42z"/><circle cx="24" cy="11" r="2"/></g></svg>