<svg enable-background="new 0 0 48 48" viewBox="0 0 48 48" xmlns="http://www.w3.org/2000/svg"><g fill="#1976d2"><path d="m38 13h-3c-5.5 0-10 4.5-10 10s4.5 10 10 10h3c5.5 0 10-4.5 10-10s-4.5-10-10-10zm0 16h-3c-3.3 0-6-2.7-6-6s2.7-6 6-6h3c3.3 0 6 2.7 6 6s-2.7 6-6 6z"/><path d="m13 13h-3c-5.5 0-10 4.5-10 10s4.5 10 10 10h3c5.5 0 10-4.5 10-10s-4.5-10-10-10zm0 16h-3c-3.3 0-6-2.7-6-6s2.7-6 6-6h3c3.3 0 6 2.7 6 6s-2.7 6-6 6z"/></g><path d="m33 21h-18c-1.1 0-2 .9-2 2s.9 2 2 2h18c1.1 0 2-.9 2-2s-.9-2-2-2z" fill="#42a5f5"/></svg>