<svg enable-background="new 0 0 48 48" viewBox="0 0 48 48" xmlns="http://www.w3.org/2000/svg"><path d="m7 10h34c2.2 0 4 1.8 4 4v20c0 2.2-1.8 4-4 4h-34c-2.2 0-4-1.8-4-4v-20c0-2.2 1.8-4 4-4z" fill="#37474f"/><path d="m42 34v-20c0-.6-.4-1-1-1h-34c-.6 0-1 .4-1 1v20c0 .6.4 1 1 1h34c.6 0 1-.4 1-1z" fill="#bbdefb"/><g fill="#3f51b5"><path d="m29 31h-10c-.6 0-1-.4-1-1v-6c0-.6.4-1 1-1h10c.6 0 1 .4 1 1v6c0 .6-.4 1-1 1z"/><path d="m24 17c-2.2 0-4 1.8-4 4v3h2v-3c0-1.1.9-2 2-2s2 .9 2 2v3h2v-3c0-2.2-1.8-4-4-4z"/></g></svg>