<svg enable-background="new 0 0 48 48" viewBox="0 0 48 48" xmlns="http://www.w3.org/2000/svg"><path d="m10 41v-34c0-2.2 1.8-4 4-4h20c2.2 0 4 1.8 4 4v34c0 2.2-1.8 4-4 4h-20c-2.2 0-4-1.8-4-4z" fill="#37474f"/><path d="m34 6h-20c-.6 0-1 .4-1 1v34c0 .6.4 1 1 1h20c.6 0 1-.4 1-1v-34c0-.6-.4-1-1-1z" fill="#bbdefb"/><g fill="#3f51b5"><path d="m29 30h-10c-.6 0-1-.4-1-1v-6c0-.6.4-1 1-1h10c.6 0 1 .4 1 1v6c0 .6-.4 1-1 1z"/><path d="m24 16c-2.2 0-4 1.8-4 4v3h2v-3c0-1.1.9-2 2-2s2 .9 2 2v3h2v-3c0-2.2-1.8-4-4-4z"/></g></svg>