<svg enable-background="new 0 0 48 48" viewBox="0 0 48 48" xmlns="http://www.w3.org/2000/svg"><g fill="#ffcc80"><circle cx="38" cy="26" r="4"/><circle cx="10" cy="26" r="4"/><path d="m39 19c0-12.7-30-8.3-30 0v10c0 8.3 6.7 15 15 15s15-6.7 15-15c0-1.8 0-8.2 0-10z"/><path d="m24 4c-8.8 0-16 7.2-16 16v3.5l2.1.6v-5.1l19.5-6.3 8.2 6.3v5.1l2.1-.6s0-2.3 0-3.5c.1-7.5-5.3-16-15.9-16z"/></g><g fill="#ff5722"><path d="m24 23.5v-11l6.6 5.5z"/><path d="m28.9 24.4c0 .2.1.4.1.6 0 2.8-2.2 5-5 5s-5-2.2-5-5 2.2-5 5-5c.7 0 1.4.2 2 .4v-4.2c-.6-.1-1.3-.2-2-.2-5 0-9 4-9 9s4 9 9 9 9-4 9-9c0-1.2-.2-2.4-.7-3.4z"/></g></svg>