<svg enable-background="new 0 0 48 48" viewBox="0 0 48 48" xmlns="http://www.w3.org/2000/svg"><path d="m24 37-5-6v-6h10v6z" fill="#ff9800"/><g fill="#ffa726"><circle cx="33" cy="19" r="2"/><circle cx="15" cy="19" r="2"/></g><path d="m33 13c0-7.6-18-5-18 0v7c0 5 4 9 9 9s9-4 9-9c0-1.1 0-5.9 0-7z" fill="#ffb74d"/><path d="m24 4c-6.1 0-10 4.9-10 11v2.3l2 1.7v-5l12-4 4 4v5l2-1.7s0-1.5 0-2.3c0-4-1-8-6-9l-1-2z" fill="#ff5722"/><g fill="#784719"><circle cx="28" cy="19" r="1"/><circle cx="20" cy="19" r="1"/></g><path d="m29 31-5 1-5-1s-11 2-11 13h32c0-11-11-13-11-13z" fill="#cfd8dc"/><path d="m23 35-1 9h4l-1-9 1-1-2-2-2 2z" fill="#3f51b5"/></svg>