<svg enable-background="new 0 0 48 48" viewBox="0 0 48 48" xmlns="http://www.w3.org/2000/svg"><path d="m40 41h-32c-2.2 0-4-1.8-4-4v-20.9c0-1.3.6-2.5 1.7-3.3l18.3-12.8 18.3 12.8c1.1.7 1.7 2 1.7 3.3v20.9c0 2.2-1.8 4-4 4z" fill="#78909c"/><path d="m14 1h20v31h-20z" fill="#aed581"/><g fill="#558b2f"><path d="m13 0v33h22v-33zm20 31h-18v-29h18z"/><path d="m34 3c0 1.7-.3 3-2 3s-3-1.3-3-3 1.3-2 3-2 2 .3 2 2z"/><path d="m16 1c1.7 0 3 .3 3 2s-1.3 3-3 3-2-1.3-2-3 .3-2 2-2z"/><circle cx="24" cy="8" r="2"/><circle cx="24" cy="20" r="6"/></g><path d="m40 41h-32c-2.2 0-4-1.8-4-4v-20l20 13 20-13v20c0 2.2-1.8 4-4 4z" fill="#cfd8dc"/></svg>