<svg enable-background="new 0 0 48 48" viewBox="0 0 48 48" xmlns="http://www.w3.org/2000/svg"><path d="m4 31v-23c0-2.2 1.8-4 4-4h12c2.2 0 4 1.8 4 4v23c0 2.2-1.8 4-4 4h-12c-2.2 0-4-1.8-4-4z" fill="#455a64"/><path d="m20 7h-12c-.6 0-1 .4-1 1v21c0 .6.4 1 1 1h12c.6 0 1-.4 1-1v-21c0-.6-.4-1-1-1z" fill="#bbdefb"/><circle cx="14" cy="32.5" fill="#37474f" r="1.5"/><path d="m14 36v-23c0-2.2 1.8-4 4-4h12c2.2 0 4 1.8 4 4v23c0 2.2-1.8 4-4 4h-12c-2.2 0-4-1.8-4-4z" fill="#546e7a"/><path d="m30 12h-12c-.6 0-1 .4-1 1v21c0 .6.4 1 1 1h12c.6 0 1-.4 1-1v-21c0-.6-.4-1-1-1z" fill="#bbdefb"/><circle cx="24" cy="37.5" fill="#37474f" r="1.5"/><path d="m24 40v-22c0-2.2 1.8-4 4-4h12c2.2 0 4 1.8 4 4v22c0 2.2-1.8 4-4 4h-12c-2.2 0-4-1.8-4-4z" fill="#e38939"/><path d="m40 17h-12c-.6 0-1 .4-1 1v20c0 .6.4 1 1 1h12c.6 0 1-.4 1-1v-20c0-.6-.4-1-1-1z" fill="#fff3e0"/><circle cx="34" cy="41.5" fill="#a6642a" r="1.5"/></svg>