<svg enable-background="new 0 0 48 48" viewBox="0 0 48 48" xmlns="http://www.w3.org/2000/svg"><path d="m42 41h-30c-2.2 0-4-1.8-4-4v-20c0-2.2 1.8-4 4-4h30c2.2 0 4 1.8 4 4v20c0 2.2-1.8 4-4 4z" fill="#455a64"/><path d="m36 36h-30c-2.2 0-4-1.8-4-4v-20c0-2.2 1.8-4 4-4h30c2.2 0 4 1.8 4 4v20c0 2.2-1.8 4-4 4z" fill="#78909c"/><circle cx="26" cy="22" fill="#455a64" r="10"/><circle cx="26" cy="22" fill="#42a5f5" r="7"/><path d="m29.7 19.7c-1-1.1-2.3-1.7-3.7-1.7s-2.8.6-3.7 1.7c-.4.4-.3 1 .1 1.4s1 .3 1.4-.1c1.2-1.3 3.3-1.3 4.5 0 .2.2.5.3.7.3s.5-.1.7-.3c.4-.3.4-.9 0-1.3z" fill="#90caf9"/><path d="m6 12h6v3h-6z" fill="#add8fb"/></svg>