<svg enable-background="new 0 0 48 48" viewBox="0 0 48 48" xmlns="http://www.w3.org/2000/svg"><path d="m40 35v5h-32v-5h-4v5c0 2.2 1.8 4 4 4h32c2.2 0 4-1.8 4-4v-5z" fill="#90a4ae"/><g fill="#1565c0"><path d="m24 23.4-7-8.4h14z"/><path d="m22 4h4v14h-4z"/><path d="m31.5 26.9-.7 1.1 3.5 1.9.6-1.2c1.6-3 2.6-4.7 3.5-5.2s2.6-.5 5.6-.5v-4c-7.7 0-8.4.4-12.5 7.9z"/><path d="m38.4 31-9 4-1.4-10z"/><path d="m16.5 26.9.6 1.2-3.5 1.9-.6-1.2c-1.6-3-2.6-4.7-3.5-5.2-.8-.6-2.5-.6-5.5-.6v-4c7.7 0 8.4.4 12.5 7.9z"/><path d="m20 25-1.4 10-9-4z"/></g></svg>