<svg enable-background="new 0 0 48 48" viewBox="0 0 48 48" xmlns="http://www.w3.org/2000/svg"><path d="m32 15v28h-22c-2.2 0-4-1.8-4-4v-24z" fill="#ff5722"/><path d="m14 5v34c0 2.2-1.8 4-4 4h29c2.2 0 4-1.8 4-4v-34z" fill="#ffccbc"/><g fill="#ff5722"><path d="m20 10h18v4h-18z"/><path d="m20 17h8v2h-8z"/><path d="m30 17h8v2h-8z"/><path d="m20 21h8v2h-8z"/><path d="m30 21h8v2h-8z"/><path d="m20 25h8v2h-8z"/><path d="m30 25h8v2h-8z"/><path d="m20 29h8v2h-8z"/><path d="m30 29h8v2h-8z"/><path d="m20 33h8v2h-8z"/><path d="m30 33h8v2h-8z"/><path d="m20 37h8v2h-8z"/><path d="m30 37h8v2h-8z"/></g></svg>