<svg enable-background="new 0 0 48 48" viewBox="0 0 48 48" xmlns="http://www.w3.org/2000/svg"><path d="m42.9 6.3c.7 1.1 1.1 2.3 1.1 3.7 0 3.9-3.1 7-7 7-.7 0-1.3-.1-1.9-.3 1.2 2 3.4 3.3 5.9 3.3 3.9 0 7-3.1 7-7 0-3.2-2.1-5.9-5.1-6.7z" fill="#40c4ff"/><g fill="#b39ddb"><circle cx="31" cy="19" r="2"/><circle cx="13" cy="19" r="2"/><path d="m22 37-5-6v-6h10v6z"/></g><path d="m31 13c0-7.6-18-5-18 0v7c0 5 4 9 9 9s9-4 9-9c0-1.1 0-5.9 0-7z" fill="#d1c4e9"/><g fill="#673ab7"><circle cx="26" cy="19" r="1"/><circle cx="18" cy="19" r="1"/><path d="m22 4c-6.1 0-10 4.9-10 11v2.3l2 1.7v-5l12-4 4 4v5l2-1.7s0-1.5 0-2.3c0-4-1-8-6-9l-1-2z"/><path d="m27 31s-2 1-5 1-5-1-5-1-11 2-11 13h32c0-11-11-13-11-13z"/></g></svg>