<svg enable-background="new 0 0 48 48" viewBox="0 0 48 48" xmlns="http://www.w3.org/2000/svg"><path d="m8 39v-30c0-3.3 2.7-6 6-6h20c3.3 0 6 2.7 6 6v30c0 3.3-2.7 6-6 6h-20c-3.3 0-6-2.7-6-6z" fill="#90a4ae"/><path d="m34 7h-20c-1.1 0-2 .9-2 2v26c0 1.1.9 2 2 2h20c1.1 0 2-.9 2-2v-26c0-1.1-.9-2-2-2z" fill="#eceff1"/><g fill="#b0bec5"><path d="m16 12h16v3h-16z"/><path d="m16 19h16v2h-16z"/><path d="m16 23h12v2h-12z"/><path d="m16 27h16v2h-16z"/><path d="m16 31h12v2h-12z"/></g><path d="m22 43v-1c0-1.1.9-2 2-2 1.1 0 2 .9 2 2v1" fill="none" stroke="#eee" stroke-miterlimit="10" stroke-width="2"/></svg>