<svg enable-background="new 0 0 48 48" viewBox="0 0 48 48" xmlns="http://www.w3.org/2000/svg"><path d="m38 33v-28h-4v28h-6l8 10 8-10z" fill="#546e7a"/><g fill="#2196f3"><path d="m19.2 20h-10.2v-2l4.8-5.1c.4-.4.7-.8.9-1.1s.5-.6.6-.9c.2-.3.3-.5.3-.8.1-.2.1-.5.1-.7 0-.7-.2-1.2-.5-1.6s-.8-.6-1.4-.6c-.3 0-.7.1-.9.2-.3.1-.5.3-.7.5s-.3.5-.4.8-.1.6-.1 1h-3c0-.7.1-1.3.4-1.9.2-.6.6-1.1 1-1.6.5-.4 1-.8 1.6-1.1s1.4-.4 2.2-.4 1.5.1 2.1.3 1.1.5 1.5.8.7.8.9 1.3.3 1.1.3 1.8c0 .5-.1 1-.2 1.4s-.4.9-.7 1.4-.6.9-1 1.4-.9 1-1.4 1.5l-2.6 2.8h6.4z"/><path d="m16.2 43h-3v-11.4l-3.5 1.1v-2.4l6.2-2.2h.3z"/></g></svg>