<svg enable-background="new 0 0 48 48" viewBox="0 0 48 48" xmlns="http://www.w3.org/2000/svg"><path d="m14 13h-6v-1.8c0-.7.5-1.2 1.2-1.2h3.6c.7 0 1.2.5 1.2 1.2z" fill="#546e7a"/><path d="m40 40h-32c-2.2 0-4-1.8-4-4v-14h40v14c0 2.2-1.8 4-4 4z" fill="#5e35b1"/><path d="m12.7 22c-.4 1.3-.7 2.6-.7 4 0 6.6 5.4 12 12 12s12-5.4 12-12c0-1.4-.3-2.7-.7-4z" fill="#42257a"/><path d="m8 12h32c2.2 0 4 1.8 4 4v6h-40v-6c0-2.2 1.8-4 4-4z" fill="#78909c"/><path d="m33.9 13.1h-19.7l3.4-5.1c.4-.6 1-.9 1.7-.9h9.6c.7 0 1.3.3 1.7.9z" fill="#78909c"/><path d="m35.3 22c-1.6-4.7-6.1-8-11.3-8s-9.7 3.3-11.3 8z" fill="#455a64"/><circle cx="24" cy="26" fill="#b388ff" r="9"/><path d="m29 23c-1.2-1.4-3-2.2-4.8-2.2s-3.6.8-4.8 2.2c-.5.5-.4 1.3.1 1.8s1.3.4 1.8-.1c1.5-1.7 4.3-1.7 5.8 0 .3.3.6.4 1 .4.3 0 .6-.1.9-.3.4-.4.5-1.3 0-1.8z" fill="#c7a7ff"/><path d="m36 15h5v4h-5z" fill="#dbe2e5"/></svg>