<svg enable-background="new 0 0 48 48" viewBox="0 0 48 48" xmlns="http://www.w3.org/2000/svg"><path d="m13 30h22v12h-22z" fill="#bf360c"/><g fill="#ffa726"><circle cx="10" cy="26" r="4"/><circle cx="38" cy="26" r="4"/></g><path d="m39 19c0-12.7-30-8.3-30 0v10c0 8.3 6.7 15 15 15s15-6.7 15-15c0-1.8 0-8.2 0-10z" fill="#ffb74d"/><g fill="#784719"><circle cx="30" cy="26" r="2"/><circle cx="18" cy="26" r="2"/></g><path d="m24 2c-8.5 0-21 5.8-21 33.6l10 6.4v-18l16.8-9.8 5.2 6.8v21l10-8.2c0-5.6-.9-29-15.4-29l-1.4-2.8z" fill="#ff5722"/><path d="m45 24c-.6 0-1 .4-1 1v-7c0-8.8-7.2-16-16-16h-9c-.6 0-1 .4-1 1s.4 1 1 1h9c7.7 0 14 6.3 14 14v10c0 .6.4 1 1 1s1-.4 1-1v2c0 3.9-3.1 7-7 7h-13c-.6 0-1 .4-1 1s.4 1 1 1h13c5 0 9-4 9-9v-5c0-.6-.4-1-1-1z" fill="#757575"/><g fill="#37474f"><path d="m45 22h-1c-1.1 0-2 .9-2 2v4c0 1.1.9 2 2 2h1c1.1 0 2-.9 2-2v-4c0-1.1-.9-2-2-2z"/><circle cx="24" cy="38" r="2"/></g></svg>