<svg enable-background="new 0 0 48 48" viewBox="0 0 48 48" xmlns="http://www.w3.org/2000/svg"><path d="m42 42h-36v-32c0-2.2 1.8-4 4-4h28c2.2 0 4 1.8 4 4z" fill="#90caf9"/><path d="m6 42h36v2h-36z" fill="#64b5f6"/><g fill="#1565c0"><path d="m31 27h6v5h-6z"/><path d="m21 27h6v5h-6z"/><path d="m11 27h6v5h-6z"/><path d="m31 35h6v5h-6z"/><path d="m11 35h6v5h-6z"/><path d="m31 19h6v5h-6z"/><path d="m21 19h6v5h-6z"/><path d="m11 19h6v5h-6z"/><path d="m31 11h6v5h-6z"/><path d="m21 11h6v5h-6z"/><path d="m11 11h6v5h-6z"/><path d="m21 35h6v9h-6z"/></g></svg>