<svg enable-background="new 0 0 48 48" viewBox="0 0 48 48" xmlns="http://www.w3.org/2000/svg"><path d="m12 40v-20h32v20c0 2.2-1.8 4-4 4h-24c-2.2 0-4-1.8-4-4z" fill="#cfd8dc"/><path d="m44 16v6h-32v-6c0-2.2 1.8-4 4-4h24c2.2 0 4 1.8 4 4z" fill="#78909c"/><g fill="#37474f"><circle cx="37" cy="16" r="3"/><circle cx="20" cy="16" r="3"/></g><g fill="#b0bec5"><path d="m37 10c-1.1 0-2 .9-2 2v4c0 1.1.9 2 2 2s2-.9 2-2v-4c0-1.1-.9-2-2-2z"/><path d="m20 10c-1.1 0-2 .9-2 2v4c0 1.1.9 2 2 2s2-.9 2-2v-4c0-1.1-.9-2-2-2z"/></g><g fill="#90a4ae"><path d="m32 34h4v4h-4z"/><path d="m26 34h4v4h-4z"/><path d="m20 34h4v4h-4z"/><path d="m32 28h4v4h-4z"/><path d="m26 28h4v4h-4z"/><path d="m20 28h4v4h-4z"/></g><circle cx="16" cy="15" fill="#f44336" r="12"/><circle cx="16" cy="15" fill="#eee" r="9"/><path d="m15 8h2v7h-2z"/><path d="m16.9 14.2h1.9v5.4h-1.9z" transform="matrix(-.707 .707 -.707 -.707 42.506 16.192)"/><circle cx="16" cy="15" r="1.5"/></svg>