<svg enable-background="new 0 0 48 48" viewBox="0 0 48 48" xmlns="http://www.w3.org/2000/svg"><path d="m25.4 5.6c-.8-.8-2-.8-2.8 0l-12 12c-.8.8-.8 2 0 2.8.4.4.9.6 1.4.6s1-.2 1.4-.6l12-12c.8-.8.8-2 0-2.8z" fill="#2e7d32"/><path d="m37.4 17.6-12-12c-.8-.8-2-.8-2.8 0s-.8 2 0 2.8l12 12c.4.4.9.6 1.4.6s1-.2 1.4-.6c.8-.8.8-2 0-2.8z" fill="#1b5e20"/><path d="m37.4 41h-26.8c-1 0-1.8-.7-2-1.6l-3.6-18.4h38l-3.7 18.4c-.2.9-1 1.6-1.9 1.6z" fill="#388e3c"/><path d="m43 23h-38c-1.1 0-2-.9-2-2v-2c0-1.1.9-2 2-2h38c1.1 0 2 .9 2 2v2c0 1.1-.9 2-2 2z" fill="#4caf50"/><path d="m30.8 24.8-7.9 7.9-3.7-3.8-2.2 2.2 5.9 5.9 10.1-10.1z" fill="#dcedc8"/></svg>