<svg enable-background="new 0 0 48 48" viewBox="0 0 48 48" xmlns="http://www.w3.org/2000/svg"><path d="m10 9c-2.2 0-4 1.8-4 4v26c0 2.2 1.8 4 4 4h16c2.2 0 4-1.8 4-4v-26c0-2.2-1.8-4-4-4" fill="#673ab7"/><g fill="#311b92"><path d="m14 13h2v26h-2z"/><path d="m24 9v-2c0-1.2-.8-2-2-2h-8c-1.2 0-2 .8-2 2v2z"/></g><path d="m30 13h-14v26h14zm-9 24h-3v-4h3zm0-18h-3v-4h3zm6 18h-3v-4h3zm-3-18v-4h3v4z" fill="#d84315"/><path d="m30 13v2h3v4h-3v14h3v4h-3v2h12v-26zm9 24h-3v-4h3zm0-18h-3v-4h3z" fill="#ff5722"/></svg>