<svg enable-background="new 0 0 48 48" viewBox="0 0 48 48" xmlns="http://www.w3.org/2000/svg"><path d="m22 38c-4.8 0-5-7-5-7v-6h10v6s-.2 7-5 7z" fill="#ff9800"/><g fill="#ffa726"><circle cx="31" cy="19" r="2"/><circle cx="13" cy="19" r="2"/></g><path d="m31 13c0-7.6-18-5-18 0v7c0 5 4 9 9 9s9-4 9-9c0-1.1 0-5.9 0-7z" fill="#ffb74d"/><path d="m22 4c-6.1 0-10 4.9-10 11v2.3l2 1.7v-5l12-4 4 4v5l2-1.7s0-1.5 0-2.3c0-4-1-8-6-9l-1-2z" fill="#424242"/><g fill="#784719"><circle cx="26" cy="19" r="1"/><circle cx="18" cy="19" r="1"/></g><path d="m27 31s-1.8 2-5 2-5-2-5-2-11 2-11 13h32c0-11-11-13-11-13z" fill="#009688"/><g fill="#ff9800"><path d="m36.1 6.1h9.9v9.9h-9.9z" transform="matrix(.707 .707 -.707 .707 19.787 -25.77)"/><path d="m36 6h10v10h-10z"/></g><circle cx="41" cy="11" fill="#ffeb3b" r="3"/></svg>