<svg enable-background="new 0 0 48 48" viewBox="0 0 48 48" xmlns="http://www.w3.org/2000/svg"><path d="m9 11h30v3h-30z" fill="#424242"/><path d="m4 25h40v-7c0-2.2-1.8-4-4-4h-32c-2.2 0-4 1.8-4 4z" fill="#616161"/><path d="m8 36h32c2.2 0 4-1.8 4-4v-8h-40v8c0 2.2 1.8 4 4 4z" fill="#424242"/><circle cx="40" cy="18" fill="#00e676" r="1"/><path d="m11 4h26v10h-26z" fill="#90caf9"/><path d="m37.5 31h-27c-.8 0-1.5-.7-1.5-1.5 0-.8.7-1.5 1.5-1.5h27c.8 0 1.5.7 1.5 1.5 0 .8-.7 1.5-1.5 1.5z" fill="#242424"/><path d="m11 31h26v11h-26z" fill="#90caf9"/><path d="m11 29h26v2h-26z" fill="#42a5f5"/><g fill="#1976d2"><path d="m16 33h17v2h-17z"/><path d="m16 37h13v2h-13z"/></g></svg>