<svg enable-background="new 0 0 48 48" viewBox="0 0 48 48" xmlns="http://www.w3.org/2000/svg"><g fill="#9c27b0"><path d="m31 8 11.9 1.6-9.8 9.8z"/><path d="m17 40-11.9-1.6 9.8-9.8z"/><path d="m8 17 1.6-11.9 9.8 9.8z"/><path d="m9.3 21.2-4.2.8c-.1.7-.1 1.3-.1 2 0 4.6 1.6 9 4.6 12.4l3-2.6c-2.3-2.7-3.6-6.2-3.6-9.8 0-.9.1-1.9.3-2.8z"/><path d="m24 5c-5.4 0-10.2 2.3-13.7 5.9l2.8 2.8c2.8-2.9 6.6-4.7 10.9-4.7.9 0 1.9.1 2.8.3l.7-3.9c-1.1-.3-2.3-.4-3.5-.4z"/><path d="m38.7 26.8 4.2-.8c.1-.7.1-1.3.1-2 0-4.4-1.5-8.7-4.3-12.1l-3.1 2.5c2.2 2.7 3.4 6.1 3.4 9.5 0 1-.1 2-.3 2.9z"/><path d="m34.9 34.3c-2.8 2.9-6.6 4.7-10.9 4.7-.9 0-1.9-.1-2.8-.3l-.7 3.9c1.2.2 2.4.3 3.5.3 5.4 0 10.2-2.3 13.7-5.9z"/><path d="m40 31-1.6 11.9-9.8-9.8z"/></g></svg>