<svg enable-background="new 0 0 48 48" viewBox="0 0 48 48" xmlns="http://www.w3.org/2000/svg"><path d="m40 41h-32c-2.2 0-4-1.8-4-4v-26c0-2.2 1.8-4 4-4h32c2.2 0 4 1.8 4 4v26c0 2.2-1.8 4-4 4z" fill="#8cbcd6"/><circle cx="35" cy="16" fill="#b3ddf5" r="3"/><path d="m20 16-11 16h22z" fill="#9ac9e3"/><path d="m31 22-8 10h16z" fill="#b3ddf5"/><circle cx="38" cy="38" fill="#f44336" r="10"/><g fill="#fff"><path d="m36.5 32h3v12h-3z" transform="matrix(-.707 .707 -.707 -.707 91.74 38)"/><path d="m36.5 32h3v12h-3z" transform="matrix(-.707 -.707 .707 -.707 38 91.74)"/></g></svg>