<svg enable-background="new 0 0 48 48" viewBox="0 0 48 48" xmlns="http://www.w3.org/2000/svg"><path d="m12.1 42h5.1l-.7-23.8-5.6 2z" fill="#455a64"/><circle cx="36.5" cy="10" fill="#ffb74d" r="5"/><path d="m11 42h-5l1.8-23.4 6.4 2.3z" fill="#607d8b"/><path d="m31.7 15.9c-.6-2-1.3-4-2.5-5.8-1.3-1.6-3.2-3.1-6.1-2-3.1 1.3-9.2 3.6-11.2 4.5-2.3 1.1-4.1 2.7-4.1 5.9 0 3.4 4.3 5.3 4.3 5.3l14.7-6.1 1.7 4.5 5.3.1c0 .1-1.5-4.4-2.1-6.4z" fill="#607d8b"/><path d="m37.9 42h-7.9c-1 0-1.8-.7-2-1.7l-2.6-17.1h17l-2.6 17.1c0 1-.9 1.7-1.9 1.7z" fill="#b39ddb"/><path d="m42 24h-16c-.6 0-1-.4-1-1 0-.6.4-1 1-1h16c.6 0 1 .4 1 1 0 .6-.4 1-1 1z" fill="#7e57c2"/></svg>