<svg enable-background="new 0 0 48 48" viewBox="0 0 48 48" xmlns="http://www.w3.org/2000/svg"><path d="m16.7 1.6h14.6v44.8h-14.6z" fill="#ffa000" transform="matrix(-.707 -.707 .707 -.707 24 57.941)"/><g fill="#9e6400"><path d="m17.9 20.2h6.6v2h-6.6z" transform="matrix(-.707 -.707 .707 -.707 21.177 51.125)"/><path d="m22.3 15.2h3.7v2h-3.7z" transform="matrix(-.707 -.707 .707 -.707 29.833 44.71)"/><path d="m25.9 12.2h6.6v2h-6.6z" transform="matrix(-.707 -.707 .707 -.707 40.49 43.125)"/><path d="m31.2 6.3h2v3.7h-2z" transform="matrix(.707 -.707 .707 .707 3.643 25.147)"/><path d="m6.3 31.2h3.7v2h-3.7z" transform="matrix(-.707 -.707 .707 -.707 -8.794 60.71)"/><path d="m9.9 28.2h6.6v2h-6.6z" transform="matrix(-.707 -.707 .707 -.707 1.863 59.125)"/><path d="m14.3 23.2h3.7v2h-3.7z" transform="matrix(-.707 -.707 .707 -.707 10.52 52.71)"/></g></svg>