<svg enable-background="new 0 0 48 48" viewBox="0 0 48 48" xmlns="http://www.w3.org/2000/svg"><path d="m39 45h-30s-3-.1-3-8h36c0 7.9-3 8-3 8z" fill="#42a5f5"/><path d="m8 3h32v34h-32z" fill="#90caf9"/><g fill="#1976d2"><g><path d="m18 15h16v2h-16z"/><path d="m18 19h16v2h-16z"/><path d="m18 23h16v2h-16z"/><path d="m18 27h16v2h-16z"/><path d="m18 31h16v2h-16z"/></g><g><path d="m14 15h2v2h-2z"/><path d="m14 19h2v2h-2z"/><path d="m14 23h2v2h-2z"/><path d="m14 27h2v2h-2z"/><path d="m14 31h2v2h-2z"/></g></g></svg>