<svg enable-background="new 0 0 48 48" viewBox="0 0 48 48" xmlns="http://www.w3.org/2000/svg"><path d="m8 39h6v3h-6z" fill="#455a64"/><path d="m34 39h6v3h-6z" fill="#455a64"/><path d="m40 41h-32c-2.2 0-4-1.8-4-4v-26c0-2.2 1.8-4 4-4h32c2.2 0 4 1.8 4 4v26c0 2.2-1.8 4-4 4z" fill="#78909c"/><path d="m40 38h-32c-.6 0-1-.4-1-1v-26c0-.6.4-1 1-1h32c.6 0 1 .4 1 1v26c0 .6-.4 1-1 1z" fill="#90a4ae"/><path d="m29 14c-5.5 0-10 4.5-10 10s4.5 10 10 10 10-4.5 10-10-4.5-10-10-10zm0 17c-3.9 0-7-3.1-7-7s3.1-7 7-7 7 3.1 7 7-3.1 7-7 7z" fill="#37474f"/><g fill="#b0bec5"><path d="m35.3 19.1.4-.4c.4-.4.4-1 0-1.4s-1-.4-1.4 0l-.4.4c.5.4 1 .9 1.4 1.4z"/><path d="m22.7 19.1c.4-.5.9-1 1.4-1.4l-.4-.4c-.4-.4-1-.4-1.4 0s-.4 1 0 1.4z"/><path d="m21 24c0-.3 0-.7.1-1h-.6c-.6 0-1 .4-1 1s.4 1 1 1h.6c-.1-.3-.1-.7-.1-1z"/><path d="m29 16c.3 0 .7 0 1 .1v-.6c0-.6-.4-1-1-1s-1 .4-1 1v.6c.3-.1.7-.1 1-.1z"/><path d="m35.3 28.9c-.4.5-.9 1-1.4 1.4l.4.4c.2.2.5.3.7.3s.5-.1.7-.3c.4-.4.4-1 0-1.4z"/><path d="m22.7 28.9-.4.4c-.4.4-.4 1 0 1.4.2.2.5.3.7.3s.5-.1.7-.3l.4-.4c-.5-.4-1-.9-1.4-1.4z"/><path d="m37.5 23h-.6c0 .3.1.7.1 1s0 .7-.1 1h.6c.6 0 1-.4 1-1s-.4-1-1-1z"/><path d="m29 32c-.3 0-.7 0-1-.1v.6c0 .6.4 1 1 1s1-.4 1-1v-.6c-.3.1-.7.1-1 .1z"/></g><path d="m12 20c-1.1 0-2 .9-2 2v8c0 1.1.9 2 2 2s2-.9 2-2v-8c0-1.1-.9-2-2-2z" fill="#455a64"/><path d="m12 18c-1.1 0-2 .9-2 2v8c0 1.1.9 2 2 2s2-.9 2-2v-8c0-1.1-.9-2-2-2z" fill="#cfd8dc"/></svg>