<svg enable-background="new 0 0 48 48" viewBox="0 0 48 48" xmlns="http://www.w3.org/2000/svg"><path d="m32.9 22c0-.3.1-.7.1-1 0-1.1 0-5.9 0-7 0-7.6-18-5-18 0v7c0 .3 0 .7.1 1z" fill="#ffb74d"/><path d="m40 44h-32c-2.2 0-4-1.8-4-4v-14c0-2.2 1.8-4 4-4h32c2.2 0 4 1.8 4 4v14c0 2.2-1.8 4-4 4z" fill="#37474f"/><path d="m7 26v14c0 .6.4 1 1 1h29c.6 0 1-.4 1-1v-14c0-.6-.4-1-1-1h-29c-.6 0-1 .4-1 1z" fill="#bbdefb"/><path d="m40 30h2v6h-2z" fill="#78909c"/><path d="m19 32h8v9h-8z" fill="#bf360c"/><path d="m20.5 37.5h5v3.5h-5z" fill="#ff9800"/><path d="m27.5 32c0-3.8-9-2.5-9 0v3.5c0 2.5 2 4.5 4.5 4.5s4.5-2 4.5-4.5c0-.5 0-3 0-3.5z" fill="#ffb74d"/><g fill="#784719"><circle cx="28" cy="21" r="1"/><circle cx="20" cy="21" r="1"/><circle cx="25" cy="35.5" r=".5"/><circle cx="21" cy="35.5" r=".5"/></g><g fill="#ff5722"><path d="m23 27c-3 0-8 1.3-8 11l4 3v-6.5l6-3.5 2 2.5v7.5l4-3c0-2-.8-10-6-10l-.5-1z"/><path d="m16 22v-3l12-7 4 5v5h6.8c-.5-6.2-2.7-16-10.8-16l-1-2h-3c-5.5 0-13.3 2.8-14.8 18z"/></g></svg>