<svg enable-background="new 0 0 48 48" viewBox="0 0 48 48" xmlns="http://www.w3.org/2000/svg"><circle cx="24" cy="24" fill="#9c27b0" r="21"/><g fill="#e1bee7"><path d="m16.7 28.2c0-3.8-7.3-2.2-7.3-8.1 0-.7.4-4.8 5.5-4.8s5.4 4.5 5.4 5.3h-3.5c0-.4 0-2.5-2-2.5-1.8 0-1.9 1.7-1.9 2 0 3 7.4 2 7.4 8.1 0 2-1.1 4.8-5.3 4.8-4.7 0-6-3.4-6-5.7h3.5c0 .5-.2 2.8 2.5 2.8 1.8.1 1.7-1.6 1.7-1.9z"/><path d="m27.1 15.6 3.2 12.4 3.2-12.4h4.5v17.2h-3.5v-4.6l.3-7.2-3.4 11.8h-2.4l-3.4-11.8.3 7.2v4.6h-3.5v-17.2z"/></g></svg>