<svg enable-background="new 0 0 48 48" viewBox="0 0 48 48" xmlns="http://www.w3.org/2000/svg"><path d="m43 36h-14v-22h10.6c.9 0 1.6.6 1.9 1.4l3.5 10.6v8c0 1.1-.9 2-2 2z" fill="#8bc34a"/><path d="m29 36h-24c-1.1 0-2-.9-2-2v-25c0-1.1.9-2 2-2h22c1.1 0 2 .9 2 2z" fill="#388e3c"/><g fill="#37474f"><circle cx="37" cy="36" r="5"/><circle cx="13" cy="36" r="5"/></g><g fill="#78909c"><circle cx="37" cy="36" r="2"/><circle cx="13" cy="36" r="2"/></g><path d="m41 25h-7c-.6 0-1-.4-1-1v-7c0-.6.4-1 1-1h5.3c.4 0 .8.3.9.7l1.7 5.2c0 .1.1.2.1.3v1.8c0 .6-.4 1-1 1z" fill="#37474f"/><path d="m21.8 13.8-7.9 7.9-3.7-3.8-2.2 2.2 5.9 5.9 10.1-10.1z" fill="#dcedc8"/></svg>