<svg enable-background="new 0 0 48 48" viewBox="0 0 48 48" xmlns="http://www.w3.org/2000/svg"><path d="m5 19h38v19h-38z" fill="#cfd8dc"/><path d="m5 38h38v4h-38z" fill="#b0bec5"/><path d="m27 24h12v18h-12z" fill="#455a64"/><path d="m9 24h14v11h-14z" fill="#e3f2fd"/><path d="m10 25h12v9h-12z" fill="#1e88e5"/><path d="m36.5 33.5c-.3 0-.5.2-.5.5v2c0 .3.2.5.5.5s.5-.2.5-.5v-2c0-.3-.2-.5-.5-.5z" fill="#90a4ae"/><g fill="#558b2f"><circle cx="24" cy="19" r="3"/><circle cx="36" cy="19" r="3"/><circle cx="12" cy="19" r="3"/></g><g fill="#7cb342"><path d="m40 6h-32c-1.1 0-2 .9-2 2v3h36v-3c0-1.1-.9-2-2-2z"/><path d="m21 11h6v8h-6z"/><path d="m37 11h-5l1 8h6z"/><path d="m11 11h5l-1 8h-6z"/></g><g fill="#ffa000"><circle cx="30" cy="19" r="3"/><path d="m45 19c0 1.7-1.3 3-3 3s-3-1.3-3-3 1.3-3 3-3z"/><circle cx="18" cy="19" r="3"/><path d="m3 19c0 1.7 1.3 3 3 3s3-1.3 3-3-1.3-3-3-3z"/></g><g fill="#ffc107"><path d="m32 11h-5v8h6z"/><path d="m42 11h-5l2 8h6z"/><path d="m16 11h5v8h-6z"/><path d="m6 11h5l-2 8h-6z"/></g></svg>