<svg enable-background="new 0 0 48 48" viewBox="0 0 48 48" xmlns="http://www.w3.org/2000/svg"><path d="m38.8 28.2c2.7-3.4 6.2-8.1 6.2-16.2 0-.6-.4-1-1-1s-1 .4-1 1c0 6.7-2.5 10.7-5 13.9-.6-1.9-1-4.2-1-6.9 0-.5-.4-1-1-1-.5 0-1 .4-1 1-.1 1.7-.6 3.6-1 3.8-.4 0-.9-1.4-1-2.8 0-.5-.5-.9-1-.9s-1 .3-1 .9c-.3 1.7-1.1 4.1-2 4.1-.4 0-.6-.1-.7-.3-.3-.3-.4-1-.4-1.6 0-.4.1-.8.1-1.2 0-.5-.4-1-.9-1s-1 .3-1.1.8c0 .1-.1.5-.1 1.1-.2 1.7-.8 5.1-2.9 5.1-.7 0-1.1-.2-1.4-.7-.5-.8-.5-2.1 0-3.3 0 0 0 0 0-.1.1-.1.1-.3.2-.4.8-1.6 1.7-2.5 3.2-2.5.6 0 1-.4 1-1s-.4-1-1-1c-4.2 0-5.4 4.1-6.6 8-1.4 4.8-2.7 8-6.4 8-5.1 0-7-6.6-7-11 0-8.6 4.7-14 9-14 2.9 0 4 2.3 4.1 2.4.2.5.8.7 1.3.5s.7-.8.5-1.3c-.1-.2-1.7-3.6-5.9-3.6-5.4 0-11 6-11 16 0 10.3 5.9 13 9 13 5.1 0 6.8-4.5 8.1-8.5.7.9 1.7 1.5 2.9 1.5 2.2 0 3.5-1.6 4.2-3.6.5.4 1.1.6 1.8.6 1.4 0 2.4-1.2 3-2.4.4.7 1.1 1.2 2 1.2.6 0 1.1-.3 1.5-.7.3 1.4.7 2.7 1 3.8-1.4 1.8-2.5 3.3-2.5 5.1 0 1.7 1.3 3 3 3 1.8 0 3-1.6 3-3 0-1.3-.5-2.7-1.1-4.3 0-.2-.1-.3-.1-.5zm-1.8 5.8c-.7 0-1-.5-1-1 0-.9.5-1.8 1.3-2.9.4 1.2.7 2.1.7 2.9 0 .3-.3 1-1 1z" fill="#1565c0"/><path d="m3 40h42v2h-42z" fill="#90a4ae"/></svg>