<svg enable-background="new 0 0 48 48" viewBox="0 0 48 48" xmlns="http://www.w3.org/2000/svg"><path d="m5 35v-22c0-2.2 1.8-4 4-4h30c2.2 0 4 1.8 4 4v22c0 2.2-1.8 4-4 4h-30c-2.2 0-4-1.8-4-4z" fill="#ff9800"/><g fill="#ffd54f"><path d="m43 21v-2h-12c-1.1 0-2-.9-2-2s.9-2 2-2h1v-2h-1c-2.2 0-4 1.8-4 4s1.8 4 4 4h3v6h-3c-2.8 0-5 2.2-5 5s2.2 5 5 5h2v-2h-2c-1.7 0-3-1.3-3-3s1.3-3 3-3h12v-2h-7v-6z"/><path d="m17 27h-3v-6h3c2.2 0 4-1.8 4-4s-1.8-4-4-4h-3v2h3c1.1 0 2 .9 2 2s-.9 2-2 2h-12v2h7v6h-7v2h12c1.7 0 3 1.3 3 3s-1.3 3-3 3h-2v2h2c2.8 0 5-2.2 5-5s-2.2-5-5-5z"/></g></svg>