<svg enable-background="new 0 0 48 48" viewBox="0 0 48 48" xmlns="http://www.w3.org/2000/svg"><path d="m40 10h-7.6l-2-3c-.4-.6-1-.9-1.7-.9h-9.6c-.7 0-1.3.3-1.7.9l-2 3h-7.4c-2.2 0-4 1.8-4 4v24c0 2.2 1.8 4 4 4h32c2.2 0 4-1.8 4-4v-24c0-2.2-1.8-4-4-4z" fill="#5e35b1"/><path d="m11 16h20c.6 0 1 .4 1 1v16c0 .6-.4 1-1 1h-20c-.6 0-1-.4-1-1v-16c0-.6.4-1 1-1z" fill="#f57c00"/><path d="m18.9 22-6.9 10h13.8z" fill="#942a09"/><circle cx="27" cy="21" fill="#fff9c4" r="2"/><path d="m25.2 26-4.8 6h9.6z" fill="#bf360c"/><g fill="#8667c4"><path d="m34 10h6v-.8c0-.7-.5-1.2-1.2-1.2h-3.6c-.7 0-1.2.5-1.2 1.2z"/><circle cx="38" cy="18" r="2"/><circle cx="38" cy="24" r="2"/><circle cx="38" cy="30" r="2"/></g></svg>