<svg enable-background="new 0 0 48 48" viewBox="0 0 48 48" xmlns="http://www.w3.org/2000/svg"><path d="m4 39v-32c0-2.2 1.8-4 4-4h22c2.2 0 4 1.8 4 4v32c0 2.2-1.8 4-4 4h-22c-2.2 0-4-1.8-4-4z" fill="#37474f"/><path d="m30 6h-22c-.6 0-1 .4-1 1v29c0 .6.4 1 1 1h22c.6 0 1-.4 1-1v-29c0-.6-.4-1-1-1z" fill="#bbdefb"/><path d="m15 39h6v2h-6z" fill="#78909c"/><path d="m24 41v-24c0-2.2 1.8-4 4-4h12c2.2 0 4 1.8 4 4v24c0 2.2-1.8 4-4 4h-12c-2.2 0-4-1.8-4-4z" fill="#e38939"/><path d="m40 16h-12c-.6 0-1 .4-1 1v22c0 .6.4 1 1 1h12c.6 0 1-.4 1-1v-22c0-.6-.4-1-1-1z" fill="#fff3e0"/><circle cx="34" cy="42.5" fill="#a6642a" r="1.5"/></svg>