<svg enable-background="new 0 0 48 48" viewBox="0 0 48 48" xmlns="http://www.w3.org/2000/svg"><path d="m28 7.1v2c7.3 1 13 7.3 13 14.9s-5.7 13.9-13 14.9v2c8.4-1 15-8.2 15-16.9s-6.6-15.9-15-16.9z" fill="#81d4fa"/><path d="m14 32h-7c-1.1 0-2-.9-2-2v-12c0-1.1.9-2 2-2h7z" fill="#546e7a"/><path d="m26 42-12-10v-16l12-10z" fill="#78909c"/><path d="m28 17.3v2.1c1.8.8 3 2.5 3 4.6s-1.2 3.8-3 4.6v2.1c2.9-.9 5-3.5 5-6.7s-2.1-5.8-5-6.7z" fill="#03a9f4"/><path d="m28 12.2v2c4.6.9 8 5 8 9.8s-3.4 8.9-8 9.8v2c5.7-1 10-5.9 10-11.8s-4.3-10.9-10-11.8z" fill="#4fc3f7"/></svg>