<svg enable-background="new 0 0 48 48" viewBox="0 0 48 48" xmlns="http://www.w3.org/2000/svg"><path d="m12.3 12.3h28v28h-28z" fill="#64b5f6" transform="matrix(.948 .318 -.318 .948 9.725 -6.994)"/><path d="m15.6 15.4h22v20h-22z" fill="#1e88e5" transform="matrix(.951 .31 -.31 .951 9.176 -6.977)"/><path d="m8.1 8.1h28v28h-28z" fill="#90caf9" transform="matrix(.983 .181 -.181 .983 4.385 -3.65)"/><path d="m11.3 11.2h22v20h-22z" fill="#42a5f5" transform="matrix(.985 .175 -.175 .985 4.048 -3.566)"/><path d="m4 4h28v28h-28z" fill="#bbdefb"/><path d="m7 7h22v20h-22z" fill="#4caf50"/><g fill="#fff"><path d="m16 13c0-1.1.9-2 2-2s2 .9 2 2-2 4-2 4-2-2.9-2-4z"/><path d="m20 21c0 1.1-.9 2-2 2s-2-.9-2-2 2-4 2-4 2 2.9 2 4z"/><path d="m13.5 16.7c-1-.6-1.3-1.8-.7-2.7.6-1 1.8-1.3 2.7-.7 1 .6 2.5 3.7 2.5 3.7s-3.5.3-4.5-.3z"/><path d="m22.5 17.3c1 .6 1.3 1.8.7 2.7-.6 1-1.8 1.3-2.7.7-1-.5-2.5-3.7-2.5-3.7s3.5-.3 4.5.3z"/><path d="m22.5 16.7c1-.6 1.3-1.8.7-2.7-.6-1-1.8-1.3-2.7-.7-1 .5-2.5 3.7-2.5 3.7s3.5.3 4.5-.3z"/><path d="m13.5 17.3c-1 .6-1.3 1.8-.7 2.7.6 1 1.8 1.3 2.7.7 1-.6 2.5-3.7 2.5-3.7s-3.5-.3-4.5.3z"/></g><circle cx="18" cy="17" fill="#ffc107" r="2"/></svg>