<svg enable-background="new 0 0 48 48" viewBox="0 0 48 48" xmlns="http://www.w3.org/2000/svg"><g fill="#37474f"><path d="m23 5h2v36h-2z"/><path d="m20.5 31.4h2v14.2h-2z" transform="matrix(.707 .707 -.707 .707 33.523 -3.921)"/><path d="m25.5 31.4h2v14.2h-2z" transform="matrix(-.707 .707 -.707 -.707 72.487 46.995)"/></g><path d="m4 8h40v28h-40z" fill="#cfd8dc"/><g fill="#607d8b"><path d="m3 7h42v4h-42z"/><path d="m3 35h42v2h-42z"/><circle cx="31.5" cy="43.5" r="1.5"/><circle cx="16.5" cy="43.5" r="1.5"/></g><g fill="#c51162"><path d="m31.9 18.9-5.9 6-6-6-8.1 8 2.2 2.2 5.9-6 6 6 8.1-8z"/><path d="m36 24-7-7h7z"/></g></svg>