<svg enable-background="new 0 0 48 48" viewBox="0 0 48 48" xmlns="http://www.w3.org/2000/svg"><path d="m36 4h-10c0 1.1-.9 2-2 2s-2-.9-2-2h-10c-2.2 0-4 1.8-4 4v32c0 2.2 1.8 4 4 4h24c2.2 0 4-1.8 4-4v-32c0-2.2-1.8-4-4-4z" fill="#455a64"/><path d="m36 41h-24c-.6 0-1-.4-1-1v-32c0-.6.4-1 1-1h24c.6 0 1 .4 1 1v32c0 .6-.4 1-1 1z" fill="#fff"/><g fill="#90a4ae"><path d="m26 4c0 1.1-.9 2-2 2s-2-.9-2-2h-7v4c0 1.1.9 2 2 2h14c1.1 0 2-.9 2-2v-4z"/><path d="m24 0c-2.2 0-4 1.8-4 4s1.8 4 4 4 4-1.8 4-4-1.8-4-4-4zm0 6c-1.1 0-2-.9-2-2s.9-2 2-2 2 .9 2 2-.9 2-2 2z"/></g><g fill="#cfd8dc"><path d="m21 20h12v2h-12z"/><path d="m15 19h4v4h-4z"/></g><g fill="#03a9f4"><path d="m21 29h12v2h-12z"/><path d="m15 28h4v4h-4z"/></g></svg>