<svg enable-background="new 0 0 48 48" viewBox="0 0 48 48" xmlns="http://www.w3.org/2000/svg"><g fill="#5e35b1"><path d="m33.9 12.1h-19.7l3.4-5.1c.4-.6 1-.9 1.7-.9h9.6c.7 0 1.3.3 1.7.9z"/><path d="m14 11h-6v-1.8c0-.7.5-1.2 1.2-1.2h3.6c.7 0 1.2.5 1.2 1.2z"/><path d="m40 42h-32c-2.2 0-4-1.8-4-4v-24c0-2.2 1.8-4 4-4h32c2.2 0 4 1.8 4 4v24c0 2.2-1.8 4-4 4z"/></g><g fill="#e8eaf6"><path d="m34 25c0-5.5-4.5-10-10-10-2.4 0-4.6.8-6.3 2.2l1.2 1.6c1.4-1.1 3.1-1.8 5.1-1.8 4.4 0 8 3.6 8 8h-3.5l4.5 5.6 4.5-5.6z"/><path d="m29.1 31.2c-1.4 1.1-3.2 1.8-5.1 1.8-4.4 0-8-3.6-8-8h3.5l-4.5-5.6-4.5 5.6h3.5c0 5.5 4.5 10 10 10 2.4 0 4.6-.8 6.3-2.2z"/></g></svg>