<svg enable-background="new 0 0 48 48" viewBox="0 0 48 48" xmlns="http://www.w3.org/2000/svg"><path d="m38.7 11.9-3.1 2.5c2.2 2.7 3.4 6.1 3.4 9.5 0 8.3-6.7 15-15 15-.9 0-1.9-.1-2.8-.3l-.7 3.9c1.2.2 2.4.3 3.5.3 10.5 0 19-8.5 19-19 0-4.2-1.5-8.5-4.3-11.9z" fill="#ff6f00"/><path d="m31 8 11.9 1.6-9.8 9.8z" fill="#ff6f02"/><path d="m24 5c-10.5 0-19 8.5-19 19 0 4.6 1.6 9 4.6 12.4l3-2.6c-2.3-2.7-3.6-6.2-3.6-9.8 0-8.3 6.7-15 15-15 .9 0 1.9.1 2.8.3l.7-3.9c-1.1-.3-2.3-.4-3.5-.4z" fill="#ff6f00"/><path d="m17 40-11.9-1.6 9.8-9.8z" fill="#ff6f02"/></svg>