<svg enable-background="new 0 0 48 48" viewBox="0 0 48 48" xmlns="http://www.w3.org/2000/svg"><path d="m42 29h-21.2c-.5 0-1-.2-1.4-.6l-3.7-3.7c-.4-.4-.4-1 0-1.4l3.7-3.7c.4-.4.9-.6 1.4-.6h21.2c.6 0 1 .4 1 1v8c0 .6-.4 1-1 1z" fill="#3f51b5"/><path d="m9 6h2v36h-2z" fill="#cfd8dc"/><g fill="#90a4ae"><circle cx="10" cy="10" r="3"/><circle cx="10" cy="24" r="3"/><circle cx="10" cy="38" r="3"/></g><path d="m34 43h-13.2c-.5 0-1-.2-1.4-.6l-3.7-3.7c-.4-.4-.4-1 0-1.4l3.7-3.7c.4-.4.9-.6 1.4-.6h13.2c.6 0 1 .4 1 1v8c0 .6-.4 1-1 1z" fill="#448aff"/><path d="m35 15h-14.2c-.5 0-1-.2-1.4-.6l-3.7-3.7c-.4-.4-.4-1 0-1.4l3.7-3.7c.4-.4.9-.6 1.4-.6h14.2c.6 0 1 .4 1 1v8c0 .6-.4 1-1 1z" fill="#00bcd4"/></svg>