<svg enable-background="new 0 0 48 48" viewBox="0 0 48 48" xmlns="http://www.w3.org/2000/svg"><path d="m6 36v-28c0-2.2 1.8-4 4-4h14c2.2 0 4 1.8 4 4v28c0 2.2-1.8 4-4 4h-14c-2.2 0-4-1.8-4-4z" fill="#37474f"/><path d="m24 7h-14c-.6 0-1 .4-1 1v25c0 .6.4 1 1 1h14c.6 0 1-.4 1-1v-25c0-.6-.4-1-1-1z" fill="#bbdefb"/><path d="m14 36h6v2h-6z" fill="#78909c"/><path d="m20 40v-28c0-2.2 1.8-4 4-4h14c2.2 0 4 1.8 4 4v28c0 2.2-1.8 4-4 4h-14c-2.2 0-4-1.8-4-4z" fill="#e38939"/><path d="m38 11h-14c-.6 0-1 .4-1 1v25c0 .6.4 1 1 1h14c.6 0 1-.4 1-1v-25c0-.6-.4-1-1-1z" fill="#fff3e0"/><circle cx="31" cy="41" fill="#a6642a" r="1.5"/></svg>