<svg enable-background="new 0 0 48 48" viewBox="0 0 48 48" xmlns="http://www.w3.org/2000/svg"><g fill="#546e7a"><path d="m5 34h6v3h-6z"/><path d="m37 34h6v3h-6z"/></g><path d="m44 35h-40c-2.2 0-4-1.8-4-4v-14c0-2.2 1.8-4 4-4h40c2.2 0 4 1.8 4 4v14c0 2.2-1.8 4-4 4z" fill="#78909c"/><g fill="#37474f"><path d="m5 19h2v2h-2z"/><path d="m5 23h2v2h-2z"/><path d="m5 27h2v2h-2z"/><path d="m9 19h2v2h-2z"/><path d="m9 23h2v2h-2z"/><path d="m9 27h2v2h-2z"/><path d="m13 19h2v2h-2z"/><path d="m13 23h2v2h-2z"/><path d="m13 27h2v2h-2z"/><path d="m17 19h2v2h-2z"/><path d="m17 23h2v2h-2z"/><path d="m17 27h2v2h-2z"/><path d="m21 19h2v2h-2z"/><path d="m21 23h2v2h-2z"/><path d="m21 27h2v2h-2z"/></g><circle cx="37" cy="24" fill="#37474f" r="8"/><circle cx="37" cy="24" fill="#a0f" r="6"/><path d="m40.7 21.7c-1-1.1-2.3-1.7-3.7-1.7s-2.8.6-3.7 1.7c-.4.4-.3 1 .1 1.4s1 .3 1.4-.1c1.2-1.3 3.3-1.3 4.5 0 .2.2.5.3.7.3s.5-.1.7-.3c.4-.3.4-.9 0-1.3z" fill="#ea80fc"/></svg>