<svg enable-background="new 0 0 48 48" viewBox="0 0 48 48" xmlns="http://www.w3.org/2000/svg"><path d="m36.5 44h-25c-1.1 0-1.8-1.2-1.3-2.2l2.8-4.8h22l2.7 4.8c.6 1-.1 2.2-1.2 2.2z" fill="#455a64"/><circle cx="24" cy="23" fill="#78909c" r="18"/><path d="m24 35c-6.6 0-12-5.4-12-12s5.4-12 12-12 12 5.4 12 12-5.4 12-12 12z" fill="#455a64"/><circle cx="24" cy="23" fill="#42a5f5" r="9"/><path d="m28.8 20c-1.2-1.4-3-2.2-4.8-2.2s-3.6.8-4.8 2.2c-.5.5-.4 1.3.1 1.8s1.3.4 1.8-.1c1.5-1.7 4.3-1.7 5.8 0 .3.3.6.4 1 .4.3 0 .6-.1.9-.3.4-.4.5-1.3 0-1.8z" fill="#90caf9"/></svg>